%TF.GenerationSoftware,KiCad,Pcbnew,(6.0.6)*%
%TF.CreationDate,2022-11-10T09:08:44+01:00*%
%TF.ProjectId,LFO,4c464f2e-6b69-4636-9164-5f7063625858,rev?*%
%TF.SameCoordinates,Original*%
%TF.FileFunction,Copper,L1,Top*%
%TF.FilePolarity,Positive*%
%FSLAX46Y46*%
G04 Gerber Fmt 4.6, Leading zero omitted, Abs format (unit mm)*
G04 Created by KiCad (PCBNEW (6.0.6)) date 2022-11-10 09:08:44*
%MOMM*%
%LPD*%
G01*
G04 APERTURE LIST*
%TA.AperFunction,ComponentPad*%
%ADD10O,1.700000X1.700000*%
%TD*%
%TA.AperFunction,ComponentPad*%
%ADD11R,1.700000X1.700000*%
%TD*%
%TA.AperFunction,ComponentPad*%
%ADD12C,1.440000*%
%TD*%
%TA.AperFunction,ComponentPad*%
%ADD13C,2.000000*%
%TD*%
%TA.AperFunction,ComponentPad*%
%ADD14C,1.600000*%
%TD*%
%TA.AperFunction,ComponentPad*%
%ADD15R,1.600000X1.600000*%
%TD*%
%TA.AperFunction,ComponentPad*%
%ADD16O,1.600000X1.600000*%
%TD*%
%TA.AperFunction,ComponentPad*%
%ADD17R,1.050000X1.500000*%
%TD*%
%TA.AperFunction,ComponentPad*%
%ADD18O,1.050000X1.500000*%
%TD*%
%TA.AperFunction,Conductor*%
%ADD19C,0.250000*%
%TD*%
G04 APERTURE END LIST*
D10*
%TO.P,J1,10,Pin_10*%
%TO.N,Net-(R10-Pad2)*%
X157475000Y-117475000D03*
%TO.P,J1,9,Pin_9*%
X154935000Y-117475000D03*
%TO.P,J1,8,Pin_8*%
%TO.N,/GND*%
X157475000Y-114935000D03*
%TO.P,J1,7,Pin_7*%
X154935000Y-114935000D03*
%TO.P,J1,6,Pin_6*%
X157475000Y-112395000D03*
%TO.P,J1,5,Pin_5*%
X154935000Y-112395000D03*
%TO.P,J1,4,Pin_4*%
X157475000Y-109855000D03*
%TO.P,J1,3,Pin_3*%
X154935000Y-109855000D03*
%TO.P,J1,2,Pin_2*%
%TO.N,Net-(R9-Pad2)*%
X157475000Y-107315000D03*
D11*
%TO.P,J1,1,Pin_1*%
X154935000Y-107315000D03*
%TD*%
D10*
%TO.P,SW1,6,C*%
%TO.N,Net-(RV2-Pad2)*%
X137160000Y-143510000D03*
%TO.P,SW1,5,B*%
%TO.N,Net-(R12-Pad2)*%
X134620000Y-143510000D03*
%TO.P,SW1,4,A*%
%TO.N,Net-(RV1-Pad2)*%
X132080000Y-143510000D03*
%TO.P,SW1,3,C*%
%TO.N,Net-(SW1-Pad3)*%
X129540000Y-143510000D03*
%TO.P,SW1,2,B*%
%TO.N,Net-(Q1-Pad1)*%
X127000000Y-143510000D03*
D11*
%TO.P,SW1,1,A*%
%TO.N,Net-(C3-Pad1)*%
X124460000Y-143510000D03*
%TD*%
D10*
%TO.P,RV5,3,3*%
%TO.N,Net-(J3-Pad2)*%
X79390000Y-83820000D03*
%TO.P,RV5,2,2*%
%TO.N,Net-(R14-Pad2)*%
X76850000Y-83820000D03*
D11*
%TO.P,RV5,1,1*%
%TO.N,/GND*%
X74310000Y-83820000D03*
%TD*%
D10*
%TO.P,RV4,3,3*%
%TO.N,Net-(R15-Pad2)*%
X90170000Y-79375000D03*
%TO.P,RV4,2,2*%
%TO.N,Net-(R11-Pad2)*%
X87630000Y-79375000D03*
D11*
%TO.P,RV4,1,1*%
%TO.N,/GND*%
X85090000Y-79375000D03*
%TD*%
D12*
%TO.P,RV3,3,3*%
%TO.N,/GND*%
X103505000Y-88265000D03*
%TO.P,RV3,2,2*%
%TO.N,Net-(R13-Pad1)*%
X100965000Y-88265000D03*
%TO.P,RV3,1,1*%
%TO.N,/+12V*%
X98425000Y-88265000D03*
%TD*%
%TO.P,RV2,3,3*%
%TO.N,Net-(R8-Pad1)*%
X134620000Y-137795000D03*
%TO.P,RV2,2,2*%
%TO.N,Net-(RV2-Pad2)*%
X132080000Y-137795000D03*
%TO.P,RV2,1,1*%
%TO.N,/GND*%
X129540000Y-137795000D03*
%TD*%
%TO.P,RV1,3,3*%
%TO.N,Net-(R8-Pad1)*%
X134620000Y-132080000D03*
%TO.P,RV1,2,2*%
%TO.N,Net-(RV1-Pad2)*%
X132080000Y-132080000D03*
%TO.P,RV1,1,1*%
%TO.N,/GND*%
X129540000Y-132080000D03*
%TD*%
D10*
%TO.P,J3,2*%
%TO.N,Net-(J3-Pad2)*%
X88895000Y-83820000D03*
D11*
%TO.P,J3,1*%
%TO.N,/GND*%
X86355000Y-83820000D03*
%TD*%
D10*
%TO.P,J2,2*%
%TO.N,Net-(C1-Pad1)*%
X102235000Y-143510000D03*
D11*
%TO.P,J2,1*%
%TO.N,/GND*%
X104775000Y-143510000D03*
%TD*%
D13*
%TO.P,C10,2*%
%TO.N,Net-(C10-Pad2)*%
X109895000Y-80645000D03*
%TO.P,C10,1*%
%TO.N,Net-(C10-Pad1)*%
X114895000Y-80645000D03*
%TD*%
%TO.P,C6,2*%
%TO.N,/+12V*%
X123190000Y-109935000D03*
%TO.P,C6,1*%
%TO.N,/-12V*%
X123190000Y-114935000D03*
%TD*%
%TO.P,C5,1*%
%TO.N,/+12V*%
X129540000Y-109855000D03*
%TO.P,C5,2*%
%TO.N,/GND*%
X129540000Y-114855000D03*
%TD*%
%TO.P,C4,1*%
%TO.N,/GND*%
X144145000Y-102235000D03*
%TO.P,C4,2*%
%TO.N,Net-(C4-Pad2)*%
X139145000Y-102235000D03*
%TD*%
%TO.P,C2,2*%
%TO.N,/GND*%
X135255000Y-80685000D03*
%TO.P,C2,1*%
%TO.N,Net-(C2-Pad1)*%
X135255000Y-85685000D03*
%TD*%
%TO.P,C1,2*%
%TO.N,Net-(C1-Pad2)*%
X102235000Y-132120000D03*
%TO.P,C1,1*%
%TO.N,Net-(C1-Pad1)*%
X102235000Y-137120000D03*
%TD*%
D14*
%TO.P,C9,2*%
%TO.N,/-12V*%
X138430000Y-117522621D03*
D15*
%TO.P,C9,1*%
%TO.N,/GND*%
X138430000Y-115022621D03*
%TD*%
D14*
%TO.P,C8,2*%
%TO.N,/GND*%
X138430000Y-109902620D03*
D15*
%TO.P,C8,1*%
%TO.N,/+12V*%
X138430000Y-107402620D03*
%TD*%
D14*
%TO.P,C7,2*%
%TO.N,/GND*%
X119380000Y-135207380D03*
D15*
%TO.P,C7,1*%
%TO.N,Net-(SW1-Pad3)*%
X119380000Y-137707380D03*
%TD*%
D14*
%TO.P,C3,2*%
%TO.N,/GND*%
X110490000Y-135207380D03*
D15*
%TO.P,C3,1*%
%TO.N,Net-(C3-Pad1)*%
X110490000Y-137707380D03*
%TD*%
D16*
%TO.P,U3,8,NC*%
%TO.N,unconnected-(U3-Pad8)*%
X101610000Y-95260000D03*
%TO.P,U3,7,V+*%
%TO.N,/+12V*%
X101610000Y-97800000D03*
%TO.P,U3,6*%
%TO.N,Net-(Q2-Pad2)*%
X101610000Y-100340000D03*
%TO.P,U3,5,NULL*%
%TO.N,unconnected-(U3-Pad5)*%
X101610000Y-102880000D03*
%TO.P,U3,4,V-*%
%TO.N,/-12V*%
X93990000Y-102880000D03*
%TO.P,U3,3,+*%
%TO.N,Net-(R7-Pad1)*%
X93990000Y-100340000D03*
%TO.P,U3,2,-*%
%TO.N,Net-(R11-Pad1)*%
X93990000Y-97800000D03*
D15*
%TO.P,U3,1,NULL*%
%TO.N,unconnected-(U3-Pad1)*%
X93990000Y-95260000D03*
%TD*%
D16*
%TO.P,U1,14*%
%TO.N,N/C*%
X116215000Y-91435000D03*
%TO.P,U1,13*%
X116215000Y-93975000D03*
%TO.P,U1,12*%
X116215000Y-96515000D03*
%TO.P,U1,11*%
%TO.N,/-12V*%
X116215000Y-99055000D03*
%TO.P,U1,10*%
%TO.N,N/C*%
X116215000Y-101595000D03*
%TO.P,U1,9*%
X116215000Y-104135000D03*
%TO.P,U1,8*%
X116215000Y-106675000D03*
%TO.P,U1,7*%
%TO.N,Net-(R5-Pad1)*%
X108595000Y-106675000D03*
%TO.P,U1,6,-*%
X108595000Y-104135000D03*
%TO.P,U1,5,+*%
%TO.N,Net-(Q1-Pad1)*%
X108595000Y-101595000D03*
%TO.P,U1,4*%
%TO.N,/+12V*%
X108595000Y-99055000D03*
%TO.P,U1,3,+*%
%TO.N,/GND*%
X108595000Y-96515000D03*
%TO.P,U1,2,-*%
%TO.N,Net-(C10-Pad1)*%
X108595000Y-93975000D03*
D15*
%TO.P,U1,1*%
%TO.N,Net-(C10-Pad2)*%
X108595000Y-91435000D03*
%TD*%
D14*
%TO.P,R16,1*%
%TO.N,Net-(C10-Pad1)*%
X116205000Y-86995000D03*
D16*
%TO.P,R16,2*%
%TO.N,Net-(C10-Pad2)*%
X108585000Y-86995000D03*
%TD*%
D14*
%TO.P,R15,1*%
%TO.N,/+12V*%
X97790000Y-83820000D03*
D16*
%TO.P,R15,2*%
%TO.N,Net-(R15-Pad2)*%
X97790000Y-76200000D03*
%TD*%
%TO.P,R14,2*%
%TO.N,Net-(R14-Pad2)*%
X79375000Y-90170000D03*
D14*
%TO.P,R14,1*%
%TO.N,Net-(R11-Pad1)*%
X79375000Y-97790000D03*
%TD*%
D16*
%TO.P,R13,2*%
%TO.N,Net-(R11-Pad1)*%
X90805000Y-97790000D03*
D14*
%TO.P,R13,1*%
%TO.N,Net-(R13-Pad1)*%
X90805000Y-90170000D03*
%TD*%
%TO.P,R12,1*%
%TO.N,Net-(C10-Pad1)*%
X120650000Y-97790000D03*
D16*
%TO.P,R12,2*%
%TO.N,Net-(R12-Pad2)*%
X120650000Y-105410000D03*
%TD*%
D14*
%TO.P,R11,1*%
%TO.N,Net-(R11-Pad1)*%
X83185000Y-97790000D03*
D16*
%TO.P,R11,2*%
%TO.N,Net-(R11-Pad2)*%
X83185000Y-90170000D03*
%TD*%
%TO.P,R10,2*%
%TO.N,Net-(R10-Pad2)*%
X151765000Y-117475000D03*
D14*
%TO.P,R10,1*%
%TO.N,/-12V*%
X144145000Y-117475000D03*
%TD*%
D16*
%TO.P,R9,2*%
%TO.N,Net-(R9-Pad2)*%
X151765000Y-107315000D03*
D14*
%TO.P,R9,1*%
%TO.N,/+12V*%
X144145000Y-107315000D03*
%TD*%
D16*
%TO.P,R8,2*%
%TO.N,/-12V*%
X134620000Y-120015000D03*
D14*
%TO.P,R8,1*%
%TO.N,Net-(R8-Pad1)*%
X134620000Y-127635000D03*
%TD*%
%TO.P,R7,1*%
%TO.N,Net-(R7-Pad1)*%
X90805000Y-100330000D03*
D16*
%TO.P,R7,2*%
%TO.N,/GND*%
X90805000Y-107950000D03*
%TD*%
%TO.P,R6,2*%
%TO.N,Net-(R11-Pad1)*%
X86995000Y-97790000D03*
D14*
%TO.P,R6,1*%
%TO.N,Net-(Q2-Pad2)*%
X86995000Y-90170000D03*
%TD*%
D16*
%TO.P,R5,2*%
%TO.N,Net-(C10-Pad1)*%
X105410000Y-94615000D03*
D14*
%TO.P,R5,1*%
%TO.N,Net-(R5-Pad1)*%
X105410000Y-102235000D03*
%TD*%
D16*
%TO.P,R4,2*%
%TO.N,Net-(Q2-Pad2)*%
X121285000Y-85090000D03*
D14*
%TO.P,R4,1*%
%TO.N,/+12V*%
X128905000Y-85090000D03*
%TD*%
%TO.P,R3,1*%
%TO.N,Net-(Q1-Pad1)*%
X135255000Y-97790000D03*
D16*
%TO.P,R3,2*%
%TO.N,Net-(C2-Pad1)*%
X135255000Y-90170000D03*
%TD*%
%TO.P,R2,2*%
%TO.N,Net-(Q1-Pad2)*%
X121920000Y-129540000D03*
D14*
%TO.P,R2,1*%
%TO.N,/GND*%
X121920000Y-121920000D03*
%TD*%
D16*
%TO.P,R1,2*%
%TO.N,Net-(Q1-Pad2)*%
X111125000Y-127000000D03*
D14*
%TO.P,R1,1*%
%TO.N,Net-(C1-Pad2)*%
X103505000Y-127000000D03*
%TD*%
D15*
%TO.P,U2,1,GND*%
%TO.N,/GND*%
X124460000Y-95250000D03*
D16*
%TO.P,U2,2,TR*%
%TO.N,Net-(C2-Pad1)*%
X124460000Y-97790000D03*
%TO.P,U2,3,Q*%
%TO.N,unconnected-(U2-Pad3)*%
X124460000Y-100330000D03*
%TO.P,U2,4,R*%
%TO.N,/+12V*%
X124460000Y-102870000D03*
%TO.P,U2,5,CV*%
%TO.N,Net-(C4-Pad2)*%
X132080000Y-102870000D03*
%TO.P,U2,6,THR*%
%TO.N,Net-(Q1-Pad1)*%
X132080000Y-100330000D03*
%TO.P,U2,7,DIS*%
X132080000Y-97790000D03*
%TO.P,U2,8,VCC*%
%TO.N,/+12V*%
X132080000Y-95250000D03*
%TD*%
D17*
%TO.P,Q2,1,C*%
%TO.N,Net-(Q1-Pad1)*%
X122555000Y-90530000D03*
D18*
%TO.P,Q2,2,B*%
%TO.N,Net-(Q2-Pad2)*%
X123825000Y-90530000D03*
%TO.P,Q2,3,E*%
%TO.N,/+12V*%
X125095000Y-90530000D03*
%TD*%
D17*
%TO.P,Q1,1,D*%
%TO.N,Net-(Q1-Pad1)*%
X116205000Y-123550000D03*
D18*
%TO.P,Q1,2,G*%
%TO.N,Net-(Q1-Pad2)*%
X117475000Y-123550000D03*
%TO.P,Q1,3,S*%
%TO.N,/GND*%
X118745000Y-123550000D03*
%TD*%
D19*
%TO.N,Net-(Q1-Pad2)*%
X117475000Y-129540000D02*
X121920000Y-129540000D01*
X114935000Y-127000000D02*
X117475000Y-129540000D01*
X114935000Y-127000000D02*
X111125000Y-127000000D01*
X117475000Y-124460000D02*
X114935000Y-127000000D01*
X117475000Y-123550000D02*
X117475000Y-124460000D01*
%TO.N,Net-(C1-Pad2)*%
X102235000Y-128270000D02*
X103505000Y-127000000D01*
X102235000Y-132120000D02*
X102235000Y-128270000D01*
%TO.N,Net-(R11-Pad1)*%
X79385000Y-97800000D02*
X79375000Y-97790000D01*
X93990000Y-97800000D02*
X79385000Y-97800000D01*
%TO.N,/-12V*%
X125730000Y-117475000D02*
X123190000Y-114935000D01*
X134620000Y-117475000D02*
X125730000Y-117475000D01*
X134667621Y-117522621D02*
X134620000Y-117475000D01*
X138430000Y-117522621D02*
X134667621Y-117522621D01*
%TO.N,/+12V*%
X132080000Y-95250000D02*
X124460000Y-102870000D01*
%TO.N,Net-(Q1-Pad1)*%
X102870000Y-103210991D02*
X101747390Y-104333601D01*
X102870000Y-102870000D02*
X102870000Y-103210991D01*
X101747390Y-104333601D02*
X100523601Y-104333601D01*
X100523601Y-104333601D02*
X84327610Y-104333601D01*
X105856399Y-104333601D02*
X100523601Y-104333601D01*
X99695000Y-76835000D02*
X124460000Y-76835000D01*
X78105000Y-93659009D02*
X85404009Y-86360000D01*
X85404009Y-86360000D02*
X90170000Y-86360000D01*
X84327610Y-104333601D02*
X78105000Y-98110991D01*
X90170000Y-86360000D02*
X99695000Y-76835000D01*
X106047500Y-104524702D02*
X105856399Y-104333601D01*
X78105000Y-98110991D02*
X78105000Y-93659009D01*
X106047500Y-123187500D02*
X106047500Y-104524702D01*
%TO.N,Net-(C1-Pad1)*%
X102235000Y-137120000D02*
X102235000Y-143510000D01*
%TO.N,/+12V*%
X127087620Y-107402620D02*
X126452620Y-107402620D01*
X129540000Y-109855000D02*
X127087620Y-107402620D01*
X123190000Y-104140000D02*
X121920000Y-102870000D01*
X123190000Y-109935000D02*
X123190000Y-104140000D01*
%TO.N,/-12V*%
X117191400Y-100180000D02*
X115090000Y-100180000D01*
X121865000Y-104853600D02*
X117191400Y-100180000D01*
X121865000Y-113610000D02*
X121865000Y-104853600D01*
X123190000Y-114935000D02*
X121865000Y-113610000D01*
%TO.N,Net-(R12-Pad2)*%
X137890000Y-144685000D02*
X135795000Y-144685000D01*
X138335000Y-125320991D02*
X138335000Y-144240000D01*
X120650000Y-114268833D02*
X131702158Y-125320991D01*
X138335000Y-144240000D02*
X137890000Y-144685000D01*
X120650000Y-105410000D02*
X120650000Y-114268833D01*
X131702158Y-125320991D02*
X138335000Y-125320991D01*
X135795000Y-144685000D02*
X134620000Y-143510000D01*
%TO.N,Net-(C2-Pad1)*%
X135255000Y-85685000D02*
X135255000Y-90170000D01*
%TO.N,Net-(Q1-Pad1)*%
X135255000Y-93980000D02*
X135255000Y-97790000D01*
X136525000Y-83820000D02*
X138430000Y-85725000D01*
X138430000Y-85725000D02*
X138430000Y-90805000D01*
X131445000Y-83820000D02*
X136525000Y-83820000D01*
X138430000Y-90805000D02*
X135255000Y-93980000D01*
X124460000Y-76835000D02*
X131445000Y-83820000D01*
%TO.N,/-12V*%
X113815000Y-100180000D02*
X104290000Y-100180000D01*
X115090000Y-100180000D02*
X113815000Y-100180000D01*
%TO.N,Net-(Q1-Pad1)*%
X122555000Y-78740000D02*
X124460000Y-76835000D01*
X122555000Y-90530000D02*
X122555000Y-78740000D01*
%TO.N,/+12V*%
X125095000Y-88900000D02*
X128905000Y-85090000D01*
X125095000Y-90530000D02*
X125095000Y-88900000D01*
%TO.N,Net-(Q2-Pad2)*%
X89535000Y-87630000D02*
X86995000Y-90170000D01*
X90170000Y-87630000D02*
X89535000Y-87630000D01*
X98480000Y-79320000D02*
X90170000Y-87630000D01*
X115515000Y-79320000D02*
X98480000Y-79320000D01*
X121285000Y-85090000D02*
X115515000Y-79320000D01*
X121285000Y-91440000D02*
X121285000Y-85090000D01*
X121920000Y-92075000D02*
X121285000Y-91440000D01*
X122935000Y-92075000D02*
X121920000Y-92075000D01*
X123825000Y-91185000D02*
X122935000Y-92075000D01*
X123825000Y-90530000D02*
X123825000Y-91185000D01*
%TO.N,/+12V*%
X121920000Y-93930000D02*
X121920000Y-102870000D01*
X125095000Y-90755000D02*
X121920000Y-93930000D01*
X125095000Y-90530000D02*
X125095000Y-90755000D01*
%TO.N,Net-(Q2-Pad2)*%
X88448601Y-91623601D02*
X86995000Y-90170000D01*
X101610000Y-100340000D02*
X92893601Y-91623601D01*
X92893601Y-91623601D02*
X88448601Y-91623601D01*
%TO.N,/-12V*%
X95115000Y-101755000D02*
X93990000Y-102880000D01*
X102715000Y-101755000D02*
X95115000Y-101755000D01*
X104290000Y-100180000D02*
X102715000Y-101755000D01*
%TO.N,Net-(C10-Pad1)*%
X107955000Y-94615000D02*
X108595000Y-93975000D01*
X105410000Y-94615000D02*
X107955000Y-94615000D01*
%TO.N,Net-(R5-Pad1)*%
X107310000Y-104135000D02*
X105410000Y-102235000D01*
X108595000Y-104135000D02*
X107310000Y-104135000D01*
%TO.N,Net-(Q1-Pad1)*%
X104944999Y-100795001D02*
X102870000Y-102870000D01*
X107795001Y-100795001D02*
X104944999Y-100795001D01*
X108595000Y-101595000D02*
X107795001Y-100795001D01*
%TO.N,Net-(R5-Pad1)*%
X108595000Y-104135000D02*
X108595000Y-106675000D01*
%TO.N,/+12V*%
X102235000Y-90805000D02*
X98425000Y-94615000D01*
X98921370Y-83820000D02*
X102235000Y-87133630D01*
X102235000Y-87133630D02*
X102235000Y-90805000D01*
X97790000Y-83820000D02*
X98921370Y-83820000D01*
%TO.N,Net-(R15-Pad2)*%
X93345000Y-76200000D02*
X97790000Y-76200000D01*
X90170000Y-79375000D02*
X93345000Y-76200000D01*
%TO.N,Net-(Q1-Pad1)*%
X106410000Y-123550000D02*
X106047500Y-123187500D01*
X106047500Y-126623482D02*
X106047500Y-123187500D01*
X109120982Y-123550000D02*
X106410000Y-123550000D01*
X116205000Y-123550000D02*
X109120982Y-123550000D01*
%TO.N,Net-(C10-Pad1)*%
X120650000Y-91440000D02*
X116205000Y-86995000D01*
X120650000Y-97790000D02*
X120650000Y-91440000D01*
%TO.N,/-12V*%
X134620000Y-120015000D02*
X134620000Y-117490000D01*
%TO.N,Net-(RV2-Pad2)*%
X132080000Y-138430000D02*
X132080000Y-137795000D01*
X137160000Y-143510000D02*
X132080000Y-138430000D01*
%TO.N,Net-(RV1-Pad2)*%
X131035000Y-133125000D02*
X132080000Y-132080000D01*
X131035000Y-142465000D02*
X131035000Y-133125000D01*
X132080000Y-143510000D02*
X131035000Y-142465000D01*
%TO.N,Net-(Q1-Pad1)*%
X121759018Y-142335000D02*
X106047500Y-126623482D01*
X127000000Y-143510000D02*
X125825000Y-142335000D01*
X125825000Y-142335000D02*
X121759018Y-142335000D01*
%TO.N,Net-(SW1-Pad3)*%
X123737380Y-137707380D02*
X119380000Y-137707380D01*
X129540000Y-143510000D02*
X123737380Y-137707380D01*
%TO.N,Net-(C3-Pad1)*%
X116292620Y-143510000D02*
X110490000Y-137707380D01*
X124460000Y-143510000D02*
X116292620Y-143510000D01*
%TO.N,Net-(J3-Pad2)*%
X87720000Y-84995000D02*
X88895000Y-83820000D01*
X80565000Y-84995000D02*
X87720000Y-84995000D01*
X79390000Y-83820000D02*
X80565000Y-84995000D01*
%TO.N,Net-(R14-Pad2)*%
X76850000Y-87645000D02*
X79375000Y-90170000D01*
X76850000Y-83820000D02*
X76850000Y-87645000D01*
%TO.N,Net-(C2-Pad1)*%
X132080000Y-90170000D02*
X124460000Y-97790000D01*
X135255000Y-90170000D02*
X132080000Y-90170000D01*
%TO.N,/+12V*%
X98425000Y-94615000D02*
X101610000Y-97800000D01*
X98425000Y-88265000D02*
X98425000Y-94615000D01*
%TO.N,Net-(C10-Pad2)*%
X108585000Y-81955000D02*
X109895000Y-80645000D01*
X108585000Y-86995000D02*
X108585000Y-81955000D01*
%TO.N,Net-(C10-Pad1)*%
X116205000Y-81955000D02*
X114895000Y-80645000D01*
X116205000Y-86995000D02*
X116205000Y-81955000D01*
X109225000Y-93975000D02*
X108595000Y-93975000D01*
X116205000Y-86995000D02*
X109225000Y-93975000D01*
%TO.N,Net-(C10-Pad2)*%
X108595000Y-87005000D02*
X108585000Y-86995000D01*
X108595000Y-91435000D02*
X108595000Y-87005000D01*
%TO.N,Net-(R13-Pad1)*%
X99920000Y-87220000D02*
X100965000Y-88265000D01*
X90805000Y-90170000D02*
X93755000Y-87220000D01*
X93755000Y-87220000D02*
X99920000Y-87220000D01*
%TO.N,Net-(C4-Pad2)*%
X138510000Y-102870000D02*
X139145000Y-102235000D01*
X132080000Y-102870000D02*
X138510000Y-102870000D01*
%TO.N,Net-(Q1-Pad1)*%
X132080000Y-97790000D02*
X135255000Y-97790000D01*
X132080000Y-97790000D02*
X132080000Y-100330000D01*
%TO.N,Net-(R8-Pad1)*%
X134620000Y-127635000D02*
X134620000Y-137795000D01*
%TO.N,Net-(R7-Pad1)*%
X90815000Y-100340000D02*
X90805000Y-100330000D01*
X93990000Y-100340000D02*
X90815000Y-100340000D01*
%TO.N,Net-(R11-Pad1)*%
X90815000Y-97800000D02*
X90805000Y-97790000D01*
%TO.N,/+12V*%
X126452620Y-107402620D02*
X134364018Y-107402620D01*
X121920000Y-102870000D02*
X126452620Y-107402620D01*
X121920000Y-102870000D02*
X124460000Y-102870000D01*
X109860000Y-97790000D02*
X116840000Y-97790000D01*
X108595000Y-99055000D02*
X109860000Y-97790000D01*
X116840000Y-97790000D02*
X121920000Y-102870000D01*
X107340000Y-97800000D02*
X108595000Y-99055000D01*
X101610000Y-97800000D02*
X107340000Y-97800000D01*
X134364018Y-107402620D02*
X138430000Y-107402620D01*
%TO.N,/GND*%
X157475000Y-114935000D02*
X157475000Y-112395000D01*
X157475000Y-109855000D02*
X157475000Y-112395000D01*
X154935000Y-109855000D02*
X154935000Y-112395000D01*
X157475000Y-112395000D02*
X154935000Y-112395000D01*
X154935000Y-114935000D02*
X154935000Y-112395000D01*
X154935000Y-112395000D02*
X138430000Y-112395000D01*
X138430000Y-112395000D02*
X138430000Y-109902620D01*
X138430000Y-115022621D02*
X138430000Y-112395000D01*
%TO.N,/-12V*%
X138477621Y-117475000D02*
X138430000Y-117522621D01*
X144145000Y-117475000D02*
X138477621Y-117475000D01*
%TO.N,/+12V*%
X138517620Y-107315000D02*
X138430000Y-107402620D01*
X144145000Y-107315000D02*
X138517620Y-107315000D01*
%TO.N,Net-(R9-Pad2)*%
X157475000Y-107315000D02*
X154935000Y-107315000D01*
X154935000Y-107315000D02*
X151765000Y-107315000D01*
%TO.N,Net-(R10-Pad2)*%
X157475000Y-117475000D02*
X154935000Y-117475000D01*
X154935000Y-117475000D02*
X151765000Y-117475000D01*
%TD*%
M02*
