%TF.GenerationSoftware,KiCad,Pcbnew,(6.0.6)*%
%TF.CreationDate,2023-01-04T14:31:25+01:00*%
%TF.ProjectId,yusynth lfo_new_con2x5,79757379-6e74-4682-906c-666f5f6e6577,rev?*%
%TF.SameCoordinates,Original*%
%TF.FileFunction,Copper,L2,Bot*%
%TF.FilePolarity,Positive*%
%FSLAX46Y46*%
G04 Gerber Fmt 4.6, Leading zero omitted, Abs format (unit mm)*
G04 Created by KiCad (PCBNEW (6.0.6)) date 2023-01-04 14:31:25*
%MOMM*%
%LPD*%
G01*
G04 APERTURE LIST*
G04 Aperture macros list*
%AMRoundRect*
0 Rectangle with rounded corners*
0 $1 Rounding radius*
0 $2 $3 $4 $5 $6 $7 $8 $9 X,Y pos of 4 corners*
0 Add a 4 corners polygon primitive as box body*
4,1,4,$2,$3,$4,$5,$6,$7,$8,$9,$2,$3,0*
0 Add four circle primitives for the rounded corners*
1,1,$1+$1,$2,$3*
1,1,$1+$1,$4,$5*
1,1,$1+$1,$6,$7*
1,1,$1+$1,$8,$9*
0 Add four rect primitives between the rounded corners*
20,1,$1+$1,$2,$3,$4,$5,0*
20,1,$1+$1,$4,$5,$6,$7,0*
20,1,$1+$1,$6,$7,$8,$9,0*
20,1,$1+$1,$8,$9,$2,$3,0*%
G04 Aperture macros list end*
%TA.AperFunction,ComponentPad*%
%ADD10R,1.700000X1.700000*%
%TD*%
%TA.AperFunction,ComponentPad*%
%ADD11O,1.700000X1.700000*%
%TD*%
%TA.AperFunction,ComponentPad*%
%ADD12R,1.050000X1.500000*%
%TD*%
%TA.AperFunction,ComponentPad*%
%ADD13O,1.050000X1.500000*%
%TD*%
%TA.AperFunction,ComponentPad*%
%ADD14C,2.000000*%
%TD*%
%TA.AperFunction,ComponentPad*%
%ADD15C,1.600000*%
%TD*%
%TA.AperFunction,ComponentPad*%
%ADD16O,1.600000X1.600000*%
%TD*%
%TA.AperFunction,ComponentPad*%
%ADD17R,1.600000X1.600000*%
%TD*%
%TA.AperFunction,ComponentPad*%
%ADD18C,1.400000*%
%TD*%
%TA.AperFunction,ComponentPad*%
%ADD19O,1.400000X1.400000*%
%TD*%
%TA.AperFunction,ComponentPad*%
%ADD20RoundRect,0.250000X-0.600000X-0.600000X0.600000X-0.600000X0.600000X0.600000X-0.600000X0.600000X0*%
%TD*%
%TA.AperFunction,ComponentPad*%
%ADD21C,1.700000*%
%TD*%
G04 APERTURE END LIST*
D10*
%TO.P,RV5,1,1*%
%TO.N,Net-(R40-Pad1)*%
X158623000Y-75311000D03*
D11*
%TO.P,RV5,2,2*%
%TO.N,Net-(RV5-Pad2)*%
X158623000Y-77851000D03*
%TO.P,RV5,3,3*%
%TO.N,GND*%
X158623000Y-80391000D03*
%TD*%
D12*
%TO.P,Q2,1,C*%
%TO.N,Net-(Q1-Pad1)*%
X123190000Y-41635000D03*
D13*
%TO.P,Q2,2,B*%
%TO.N,Net-(Q2-Pad2)*%
X124460000Y-41635000D03*
%TO.P,Q2,3,E*%
%TO.N,+12V*%
X125730000Y-41635000D03*
%TD*%
D14*
%TO.P,C6,1*%
%TO.N,GND*%
X106680000Y-67397000D03*
%TO.P,C6,2*%
%TO.N,+12V*%
X106680000Y-62397000D03*
%TD*%
D15*
%TO.P,R36,1*%
%TO.N,Net-(R34-Pad2)*%
X175387000Y-75057000D03*
D16*
%TO.P,R36,2*%
%TO.N,GND*%
X167767000Y-75057000D03*
%TD*%
D15*
%TO.P,R2,1*%
%TO.N,Net-(R2-Pad1)*%
X118745000Y-81915000D03*
D16*
%TO.P,R2,2*%
%TO.N,Net-(R10-Pad1)*%
X118745000Y-74295000D03*
%TD*%
D17*
%TO.P,U3,1*%
%TO.N,Net-(C9-Pad2)*%
X139065000Y-43810000D03*
D16*
%TO.P,U3,2,-*%
%TO.N,Net-(C9-Pad1)*%
X139065000Y-46350000D03*
%TO.P,U3,3,+*%
%TO.N,GND*%
X139065000Y-48890000D03*
%TO.P,U3,4,V+*%
%TO.N,+12V*%
X139065000Y-51430000D03*
%TO.P,U3,5,+*%
%TO.N,Net-(Q1-Pad1)*%
X139065000Y-53970000D03*
%TO.P,U3,6,-*%
%TO.N,Net-(R14-Pad1)*%
X139065000Y-56510000D03*
%TO.P,U3,7*%
X139065000Y-59050000D03*
%TO.P,U3,8*%
%TO.N,Net-(C10-Pad2)*%
X146685000Y-59050000D03*
%TO.P,U3,9,-*%
%TO.N,Net-(C10-Pad1)*%
X146685000Y-56510000D03*
%TO.P,U3,10,+*%
%TO.N,GND*%
X146685000Y-53970000D03*
%TO.P,U3,11,V-*%
%TO.N,-12V*%
X146685000Y-51430000D03*
%TO.P,U3,12,+*%
%TO.N,GND*%
X146685000Y-48890000D03*
%TO.P,U3,13,-*%
%TO.N,Net-(R26-Pad2)*%
X146685000Y-46350000D03*
%TO.P,U3,14*%
%TO.N,Net-(R12-Pad2)*%
X146685000Y-43810000D03*
%TD*%
D15*
%TO.P,R17,1*%
%TO.N,Net-(R17-Pad1)*%
X160401000Y-53213000D03*
D16*
%TO.P,R17,2*%
%TO.N,Net-(C10-Pad1)*%
X160401000Y-60833000D03*
%TD*%
D15*
%TO.P,R28,1*%
%TO.N,Net-(R28-Pad1)*%
X182753000Y-35433000D03*
D16*
%TO.P,R28,2*%
%TO.N,Net-(R28-Pad2)*%
X190373000Y-35433000D03*
%TD*%
D15*
%TO.P,R33,1*%
%TO.N,Net-(R33-Pad1)*%
X175260000Y-58801000D03*
D16*
%TO.P,R33,2*%
%TO.N,Net-(Q3-Pad2)*%
X182880000Y-58801000D03*
%TD*%
D17*
%TO.P,C5,1*%
%TO.N,Net-(C5-Pad1)*%
X147867379Y-65405000D03*
D15*
%TO.P,C5,2*%
%TO.N,GND*%
X145367379Y-65405000D03*
%TD*%
%TO.P,R1,1*%
%TO.N,Net-(R1-Pad1)*%
X111125000Y-73025000D03*
D16*
%TO.P,R1,2*%
%TO.N,+12V*%
X111125000Y-65405000D03*
%TD*%
D15*
%TO.P,R14,1*%
%TO.N,Net-(R14-Pad1)*%
X136017000Y-53975000D03*
D16*
%TO.P,R14,2*%
%TO.N,Net-(C9-Pad1)*%
X136017000Y-46355000D03*
%TD*%
D15*
%TO.P,R20,1*%
%TO.N,Net-(C10-Pad2)*%
X163830000Y-64135000D03*
D16*
%TO.P,R20,2*%
%TO.N,Net-(D3-Pad2)*%
X171450000Y-64135000D03*
%TD*%
D18*
%TO.P,REF\u002A\u002A,1*%
%TO.N,Net-(R40-Pad1)*%
X153543000Y-72517000D03*
D19*
%TO.P,REF\u002A\u002A,2*%
X158623000Y-72517000D03*
%TD*%
D10*
%TO.P,RV3,1,1*%
%TO.N,+12V*%
X126619000Y-76342000D03*
D11*
%TO.P,RV3,2,2*%
%TO.N,Net-(R4-Pad1)*%
X126619000Y-78882000D03*
%TO.P,RV3,3,3*%
%TO.N,GND*%
X126619000Y-81422000D03*
%TD*%
D17*
%TO.P,U2,1,GND*%
%TO.N,GND*%
X106563000Y-46365000D03*
D16*
%TO.P,U2,2,TR*%
%TO.N,Net-(C2-Pad2)*%
X106563000Y-48905000D03*
%TO.P,U2,3,Q*%
%TO.N,unconnected-(U2-Pad3)*%
X106563000Y-51445000D03*
%TO.P,U2,4,R*%
%TO.N,+12V*%
X106563000Y-53985000D03*
%TO.P,U2,5,CV*%
%TO.N,Net-(C3-Pad2)*%
X114183000Y-53985000D03*
%TO.P,U2,6,THR*%
%TO.N,Net-(Q1-Pad1)*%
X114183000Y-51445000D03*
%TO.P,U2,7,DIS*%
X114183000Y-48905000D03*
%TO.P,U2,8,VCC*%
%TO.N,+12V*%
X114183000Y-46365000D03*
%TD*%
D18*
%TO.P,REF\u002A\u002A,1*%
%TO.N,Net-(D3-Pad2)*%
X176657000Y-53213000D03*
D19*
%TO.P,REF\u002A\u002A,2*%
X181737000Y-53213000D03*
%TD*%
D10*
%TO.P,J4,1*%
%TO.N,GND*%
X194158000Y-81387000D03*
D11*
%TO.P,J4,2*%
%TO.N,Net-(J4-Pad2)*%
X194158000Y-78847000D03*
%TD*%
D15*
%TO.P,R9,1*%
%TO.N,Net-(Q2-Pad2)*%
X119380000Y-46990000D03*
D16*
%TO.P,R9,2*%
%TO.N,+12V*%
X127000000Y-46990000D03*
%TD*%
D14*
%TO.P,C9,1*%
%TO.N,Net-(C9-Pad1)*%
X153035000Y-36155000D03*
%TO.P,C9,2*%
%TO.N,Net-(C9-Pad2)*%
X153035000Y-31155000D03*
%TD*%
D15*
%TO.P,R16,1*%
%TO.N,Net-(C10-Pad1)*%
X153670000Y-60960000D03*
D16*
%TO.P,R16,2*%
%TO.N,Net-(R12-Pad2)*%
X153670000Y-53340000D03*
%TD*%
D15*
%TO.P,R35,1*%
%TO.N,Net-(R30-Pad2)*%
X191135000Y-57277000D03*
D16*
%TO.P,R35,2*%
%TO.N,Net-(J4-Pad2)*%
X191135000Y-64897000D03*
%TD*%
D18*
%TO.P,REF\u002A\u002A,1*%
%TO.N,Net-(Q1-Pad1)*%
X106807000Y-42291000D03*
X111887000Y-42291000D03*
%TD*%
D17*
%TO.P,U4,1*%
%TO.N,Net-(R28-Pad2)*%
X190505000Y-42555000D03*
D16*
%TO.P,U4,2,-*%
%TO.N,Net-(R28-Pad1)*%
X187965000Y-42555000D03*
%TO.P,U4,3,+*%
%TO.N,GND*%
X185425000Y-42555000D03*
%TO.P,U4,4,V+*%
%TO.N,+12V*%
X182885000Y-42555000D03*
%TO.P,U4,5,+*%
%TO.N,GND*%
X180345000Y-42555000D03*
%TO.P,U4,6,-*%
%TO.N,Net-(D1-Pad1)*%
X177805000Y-42555000D03*
%TO.P,U4,7*%
%TO.N,Net-(D1-Pad2)*%
X175265000Y-42555000D03*
%TO.P,U4,8*%
%TO.N,Net-(R33-Pad1)*%
X175265000Y-50175000D03*
%TO.P,U4,9,-*%
%TO.N,Net-(R22-Pad2)*%
X177805000Y-50175000D03*
%TO.P,U4,10,+*%
%TO.N,Net-(RV7-Pad2)*%
X180345000Y-50175000D03*
%TO.P,U4,11,V-*%
%TO.N,-12V*%
X182885000Y-50175000D03*
%TO.P,U4,12,+*%
%TO.N,Net-(D3-Pad2)*%
X185425000Y-50175000D03*
%TO.P,U4,13,-*%
%TO.N,Net-(R27-Pad2)*%
X187965000Y-50175000D03*
%TO.P,U4,14*%
%TO.N,Net-(R30-Pad2)*%
X190505000Y-50175000D03*
%TD*%
D10*
%TO.P,J8,1*%
%TO.N,GND*%
X202336000Y-28849000D03*
D11*
%TO.P,J8,2*%
%TO.N,RAMP*%
X202336000Y-31389000D03*
%TD*%
D10*
%TO.P,RV7,1,1*%
%TO.N,Net-(R24-Pad2)*%
X203581000Y-54595000D03*
D11*
%TO.P,RV7,2,2*%
%TO.N,Net-(RV7-Pad2)*%
X203581000Y-52055000D03*
%TO.P,RV7,3,3*%
%TO.N,Net-(R25-Pad2)*%
X203581000Y-49515000D03*
%TD*%
D10*
%TO.P,RV1,1,1*%
%TO.N,Net-(J2-Pad2)*%
X100990000Y-75580000D03*
D11*
%TO.P,RV1,2,2*%
%TO.N,Net-(R3-Pad1)*%
X100990000Y-78120000D03*
%TO.P,RV1,3,3*%
%TO.N,GND*%
X100990000Y-80660000D03*
%TD*%
D18*
%TO.P,REF\u002A\u002A,1*%
%TO.N,Net-(Q1-Pad1)*%
X129540000Y-46863000D03*
X129540000Y-51943000D03*
%TD*%
D15*
%TO.P,REF\u002A\u002A,1*%
%TO.N,-12V*%
X155829000Y-83439000D03*
D16*
%TO.P,REF\u002A\u002A,2*%
X165989000Y-83439000D03*
%TD*%
D14*
%TO.P,C2,1*%
%TO.N,GND*%
X106553000Y-30139000D03*
%TO.P,C2,2*%
%TO.N,Net-(C2-Pad2)*%
X106553000Y-35139000D03*
%TD*%
D15*
%TO.P,R30,1*%
%TO.N,Net-(R27-Pad2)*%
X184277000Y-53467000D03*
D16*
%TO.P,R30,2*%
%TO.N,Net-(R30-Pad2)*%
X191897000Y-53467000D03*
%TD*%
D15*
%TO.P,R41,1*%
%TO.N,Net-(R12-Pad2)*%
X167767000Y-33401000D03*
D16*
%TO.P,R41,2*%
%TO.N,Net-(R28-Pad1)*%
X175387000Y-33401000D03*
%TD*%
D10*
%TO.P,J7,1*%
%TO.N,GND*%
X183236000Y-31857000D03*
D11*
%TO.P,J7,2*%
%TO.N,SAW*%
X183236000Y-29317000D03*
%TD*%
D18*
%TO.P,REF\u002A\u002A,1*%
%TO.N,+12V*%
X193167000Y-26797000D03*
X188087000Y-26797000D03*
%TD*%
D10*
%TO.P,J6,1*%
%TO.N,GND*%
X180950000Y-81387000D03*
D11*
%TO.P,J6,2*%
%TO.N,PULSE*%
X180950000Y-78847000D03*
%TD*%
D15*
%TO.P,R10,1*%
%TO.N,Net-(R10-Pad1)*%
X119380000Y-54610000D03*
D16*
%TO.P,R10,2*%
%TO.N,Net-(R10-Pad2)*%
X127000000Y-54610000D03*
%TD*%
D12*
%TO.P,Q3,1,C*%
%TO.N,+12V*%
X184150000Y-63775000D03*
D13*
%TO.P,Q3,2,B*%
%TO.N,Net-(Q3-Pad2)*%
X182880000Y-63775000D03*
%TO.P,Q3,3,E*%
%TO.N,Net-(Q3-Pad3)*%
X181610000Y-63775000D03*
%TD*%
D15*
%TO.P,R37,1*%
%TO.N,PULSE*%
X178435000Y-74295000D03*
D16*
%TO.P,R37,2*%
%TO.N,Net-(R34-Pad2)*%
X178435000Y-66675000D03*
%TD*%
D12*
%TO.P,Q1,1,D*%
%TO.N,Net-(Q1-Pad1)*%
X99187000Y-42185000D03*
D13*
%TO.P,Q1,2,G*%
%TO.N,Net-(Q1-Pad2)*%
X97917000Y-42185000D03*
%TO.P,Q1,3,S*%
%TO.N,GND*%
X96647000Y-42185000D03*
%TD*%
D18*
%TO.P,REF\u002A\u002A,1*%
%TO.N,-12V*%
X124587000Y-70231000D03*
D19*
%TO.P,REF\u002A\u002A,2*%
X129667000Y-70231000D03*
%TD*%
D15*
%TO.P,R31,1*%
%TO.N,Net-(R12-Pad2)*%
X167767000Y-30099000D03*
D16*
%TO.P,R31,2*%
%TO.N,SAW*%
X175387000Y-30099000D03*
%TD*%
D15*
%TO.P,R4,1*%
%TO.N,Net-(R4-Pad1)*%
X121920000Y-81915000D03*
D16*
%TO.P,R4,2*%
%TO.N,Net-(R10-Pad1)*%
X121920000Y-74295000D03*
%TD*%
D14*
%TO.P,C4,1*%
%TO.N,Net-(C4-Pad1)*%
X140335000Y-73025000D03*
%TO.P,C4,2*%
%TO.N,GND*%
X145335000Y-73025000D03*
%TD*%
%TO.P,C10,1*%
%TO.N,Net-(C10-Pad1)*%
X158710000Y-68580000D03*
%TO.P,C10,2*%
%TO.N,Net-(C10-Pad2)*%
X153710000Y-68580000D03*
%TD*%
D15*
%TO.P,R25,1*%
%TO.N,-12V*%
X195961000Y-45339000D03*
D16*
%TO.P,R25,2*%
%TO.N,Net-(R25-Pad2)*%
X203581000Y-45339000D03*
%TD*%
D15*
%TO.P,R13,1*%
%TO.N,Net-(D1-Pad1)*%
X164973000Y-44069000D03*
D16*
%TO.P,R13,2*%
%TO.N,Net-(D2-Pad2)*%
X164973000Y-36449000D03*
%TD*%
D14*
%TO.P,C1,1*%
%TO.N,SYNC*%
X90043000Y-32131000D03*
%TO.P,C1,2*%
%TO.N,Net-(C1-Pad2)*%
X90043000Y-37131000D03*
%TD*%
D20*
%TO.P,J1,1,Pin_1*%
%TO.N,Net-(J1-Pad1)*%
X90292000Y-59822000D03*
D21*
%TO.P,J1,2,Pin_2*%
X92832000Y-59822000D03*
%TO.P,J1,3,Pin_3*%
%TO.N,GND*%
X90292000Y-62362000D03*
%TO.P,J1,4,Pin_4*%
X92832000Y-62362000D03*
%TO.P,J1,5,Pin_5*%
X90292000Y-64902000D03*
%TO.P,J1,6,Pin_6*%
X92832000Y-64902000D03*
%TO.P,J1,7,Pin_7*%
X90292000Y-67442000D03*
%TO.P,J1,8,Pin_8*%
X92832000Y-67442000D03*
%TO.P,J1,9,Pin_9*%
%TO.N,Net-(J1-Pad10)*%
X90292000Y-69982000D03*
%TO.P,J1,10,Pin_10*%
X92832000Y-69982000D03*
%TD*%
D17*
%TO.P,D3,1,K*%
%TO.N,GND*%
X164465000Y-58420000D03*
D16*
%TO.P,D3,2,A*%
%TO.N,Net-(D3-Pad2)*%
X172085000Y-58420000D03*
%TD*%
D15*
%TO.P,R32,1*%
%TO.N,Net-(R28-Pad2)*%
X190373000Y-38735000D03*
D16*
%TO.P,R32,2*%
%TO.N,RAMP*%
X197993000Y-38735000D03*
%TD*%
D15*
%TO.P,R12,1*%
%TO.N,Net-(D1-Pad1)*%
X161671000Y-47117000D03*
D16*
%TO.P,R12,2*%
%TO.N,Net-(R12-Pad2)*%
X161671000Y-39497000D03*
%TD*%
D17*
%TO.P,C8,1*%
%TO.N,GND*%
X100330000Y-64770000D03*
D15*
%TO.P,C8,2*%
%TO.N,-12V*%
X100330000Y-67270000D03*
%TD*%
%TO.P,R39,1*%
%TO.N,Net-(R39-Pad1)*%
X132715000Y-53975000D03*
D16*
%TO.P,R39,2*%
%TO.N,Net-(C9-Pad1)*%
X132715000Y-46355000D03*
%TD*%
D10*
%TO.P,J5,1*%
%TO.N,GND*%
X175362000Y-81387000D03*
D11*
%TO.P,J5,2*%
%TO.N,TRI*%
X175362000Y-78847000D03*
%TD*%
D15*
%TO.P,R19,1*%
%TO.N,Net-(C10-Pad1)*%
X159385000Y-64135000D03*
D16*
%TO.P,R19,2*%
%TO.N,Net-(C10-Pad2)*%
X151765000Y-64135000D03*
%TD*%
D17*
%TO.P,D4,1,K*%
%TO.N,Net-(D3-Pad2)*%
X172085000Y-55880000D03*
D16*
%TO.P,D4,2,A*%
%TO.N,GND*%
X164465000Y-55880000D03*
%TD*%
D15*
%TO.P,R23,1*%
%TO.N,Net-(D3-Pad2)*%
X172085000Y-52705000D03*
D16*
%TO.P,R23,2*%
%TO.N,GND*%
X164465000Y-52705000D03*
%TD*%
D15*
%TO.P,R29,1*%
%TO.N,Net-(R26-Pad2)*%
X150495000Y-41275000D03*
D16*
%TO.P,R29,2*%
%TO.N,Net-(R12-Pad2)*%
X150495000Y-48895000D03*
%TD*%
D15*
%TO.P,R15,1*%
%TO.N,Net-(D2-Pad2)*%
X156845000Y-53340000D03*
D16*
%TO.P,R15,2*%
%TO.N,Net-(C10-Pad1)*%
X156845000Y-60960000D03*
%TD*%
D15*
%TO.P,R38,1*%
%TO.N,Net-(D5-Pad2)*%
X184150000Y-75565000D03*
D16*
%TO.P,R38,2*%
%TO.N,Net-(Q3-Pad3)*%
X184150000Y-67945000D03*
%TD*%
D10*
%TO.P,D5,1,K*%
%TO.N,GND*%
X188341000Y-81407000D03*
D11*
%TO.P,D5,2,A*%
%TO.N,Net-(D5-Pad2)*%
X188341000Y-78867000D03*
%TD*%
D15*
%TO.P,R3,1*%
%TO.N,Net-(R3-Pad1)*%
X107061000Y-75565000D03*
D16*
%TO.P,R3,2*%
%TO.N,Net-(R10-Pad1)*%
X114681000Y-75565000D03*
%TD*%
D15*
%TO.P,R21,1*%
%TO.N,Net-(C10-Pad2)*%
X163830000Y-70485000D03*
D16*
%TO.P,R21,2*%
%TO.N,TRI*%
X171450000Y-70485000D03*
%TD*%
D10*
%TO.P,J3,1*%
%TO.N,GND*%
X97942000Y-29357000D03*
D11*
%TO.P,J3,2*%
%TO.N,SYNC*%
X97942000Y-31897000D03*
%TD*%
D15*
%TO.P,R42,1*%
%TO.N,-12V*%
X107315000Y-72390000D03*
D16*
%TO.P,R42,2*%
%TO.N,Net-(J1-Pad10)*%
X99695000Y-72390000D03*
%TD*%
D10*
%TO.P,RV6,1,1*%
%TO.N,+12V*%
X195580000Y-31750000D03*
D11*
%TO.P,RV6,2,2*%
%TO.N,Net-(R17-Pad1)*%
X193040000Y-31750000D03*
%TO.P,RV6,3,3*%
%TO.N,GND*%
X190500000Y-31750000D03*
%TD*%
D15*
%TO.P,R22,1*%
%TO.N,Net-(C9-Pad2)*%
X171069000Y-42291000D03*
D16*
%TO.P,R22,2*%
%TO.N,Net-(R22-Pad2)*%
X171069000Y-49911000D03*
%TD*%
D15*
%TO.P,R24,1*%
%TO.N,+12V*%
X195961000Y-60833000D03*
D16*
%TO.P,R24,2*%
%TO.N,Net-(R24-Pad2)*%
X203581000Y-60833000D03*
%TD*%
D17*
%TO.P,C7,1*%
%TO.N,+12V*%
X100330000Y-55967621D03*
D15*
%TO.P,C7,2*%
%TO.N,GND*%
X100330000Y-58467621D03*
%TD*%
%TO.P,R6,1*%
%TO.N,Net-(Q1-Pad1)*%
X102743000Y-42291000D03*
D16*
%TO.P,R6,2*%
%TO.N,Net-(C2-Pad2)*%
X102743000Y-49911000D03*
%TD*%
D10*
%TO.P,SW1,1,A*%
%TO.N,Net-(C5-Pad1)*%
X145415000Y-78105000D03*
D11*
%TO.P,SW1,2,B*%
%TO.N,Net-(Q1-Pad1)*%
X142875000Y-78105000D03*
%TO.P,SW1,3,C*%
%TO.N,Net-(C4-Pad1)*%
X140335000Y-78105000D03*
%TO.P,SW1,4,A*%
%TO.N,Net-(RV5-Pad2)*%
X137795000Y-78105000D03*
%TO.P,SW1,5,B*%
%TO.N,Net-(R39-Pad1)*%
X135255000Y-78105000D03*
%TO.P,SW1,6,C*%
%TO.N,Net-(RV4-Pad2)*%
X132715000Y-78105000D03*
%TD*%
D15*
%TO.P,R26,1*%
%TO.N,Net-(C9-Pad2)*%
X139065000Y-39370000D03*
D16*
%TO.P,R26,2*%
%TO.N,Net-(R26-Pad2)*%
X146685000Y-39370000D03*
%TD*%
D10*
%TO.P,RV2,1,1*%
%TO.N,GND*%
X111618000Y-81686000D03*
D11*
%TO.P,RV2,2,2*%
%TO.N,Net-(R2-Pad1)*%
X109078000Y-81686000D03*
%TO.P,RV2,3,3*%
%TO.N,Net-(R1-Pad1)*%
X106538000Y-81686000D03*
%TD*%
D17*
%TO.P,D2,1,K*%
%TO.N,Net-(D1-Pad2)*%
X175387000Y-36449000D03*
D16*
%TO.P,D2,2,A*%
%TO.N,Net-(D2-Pad2)*%
X167767000Y-36449000D03*
%TD*%
D10*
%TO.P,RV4,1,1*%
%TO.N,Net-(R40-Pad1)*%
X153543000Y-75311000D03*
D11*
%TO.P,RV4,2,2*%
%TO.N,Net-(RV4-Pad2)*%
X153543000Y-77851000D03*
%TO.P,RV4,3,3*%
%TO.N,GND*%
X153543000Y-80391000D03*
%TD*%
D15*
%TO.P,R7,1*%
%TO.N,GND*%
X90297000Y-47117000D03*
D16*
%TO.P,R7,2*%
%TO.N,Net-(Q1-Pad2)*%
X97917000Y-47117000D03*
%TD*%
D17*
%TO.P,U1,1,NULL*%
%TO.N,unconnected-(U1-Pad1)*%
X121295000Y-59065000D03*
D16*
%TO.P,U1,2,-*%
%TO.N,Net-(R10-Pad1)*%
X121295000Y-61605000D03*
%TO.P,U1,3,+*%
%TO.N,Net-(R8-Pad2)*%
X121295000Y-64145000D03*
%TO.P,U1,4,V-*%
%TO.N,-12V*%
X121295000Y-66685000D03*
%TO.P,U1,5,NULL*%
%TO.N,unconnected-(U1-Pad5)*%
X128915000Y-66685000D03*
%TO.P,U1,6*%
%TO.N,Net-(R10-Pad2)*%
X128915000Y-64145000D03*
%TO.P,U1,7,V+*%
%TO.N,+12V*%
X128915000Y-61605000D03*
%TO.P,U1,8,NC*%
%TO.N,unconnected-(U1-Pad8)*%
X128915000Y-59065000D03*
%TD*%
D14*
%TO.P,C3,1*%
%TO.N,GND*%
X115697000Y-65111000D03*
%TO.P,C3,2*%
%TO.N,Net-(C3-Pad2)*%
X115697000Y-60111000D03*
%TD*%
D15*
%TO.P,R34,1*%
%TO.N,Net-(R33-Pad1)*%
X175387000Y-62357000D03*
D16*
%TO.P,R34,2*%
%TO.N,Net-(R34-Pad2)*%
X175387000Y-69977000D03*
%TD*%
D15*
%TO.P,R18,1*%
%TO.N,Net-(C9-Pad2)*%
X139065000Y-36195000D03*
D16*
%TO.P,R18,2*%
%TO.N,Net-(C9-Pad1)*%
X146685000Y-36195000D03*
%TD*%
D15*
%TO.P,R40,1*%
%TO.N,Net-(R40-Pad1)*%
X150495000Y-59055000D03*
D16*
%TO.P,R40,2*%
%TO.N,-12V*%
X150495000Y-51435000D03*
%TD*%
D15*
%TO.P,R8,1*%
%TO.N,GND*%
X114173000Y-70739000D03*
D16*
%TO.P,R8,2*%
%TO.N,Net-(R8-Pad2)*%
X121793000Y-70739000D03*
%TD*%
D15*
%TO.P,R11,1*%
%TO.N,Net-(R10-Pad2)*%
X127000000Y-50800000D03*
D16*
%TO.P,R11,2*%
%TO.N,Net-(Q2-Pad2)*%
X119380000Y-50800000D03*
%TD*%
D15*
%TO.P,R5,1*%
%TO.N,Net-(C1-Pad2)*%
X94107000Y-37211000D03*
D16*
%TO.P,R5,2*%
%TO.N,Net-(Q1-Pad2)*%
X101727000Y-37211000D03*
%TD*%
D15*
%TO.P,R43,1*%
%TO.N,+12V*%
X97917000Y-52070000D03*
D16*
%TO.P,R43,2*%
%TO.N,Net-(J1-Pad1)*%
X90297000Y-52070000D03*
%TD*%
D10*
%TO.P,J2,1*%
%TO.N,GND*%
X95860000Y-80625000D03*
D11*
%TO.P,J2,2*%
%TO.N,Net-(J2-Pad2)*%
X95860000Y-78085000D03*
%TD*%
D17*
%TO.P,D1,1,K*%
%TO.N,Net-(D1-Pad1)*%
X167767000Y-39497000D03*
D16*
%TO.P,D1,2,A*%
%TO.N,Net-(D1-Pad2)*%
X175387000Y-39497000D03*
%TD*%
M02*
