%TF.GenerationSoftware,KiCad,Pcbnew,(6.0.6)*%
%TF.CreationDate,2023-01-04T14:31:25+01:00*%
%TF.ProjectId,yusynth lfo_new_con2x5,79757379-6e74-4682-906c-666f5f6e6577,rev?*%
%TF.SameCoordinates,Original*%
%TF.FileFunction,Soldermask,Top*%
%TF.FilePolarity,Negative*%
%FSLAX46Y46*%
G04 Gerber Fmt 4.6, Leading zero omitted, Abs format (unit mm)*
G04 Created by KiCad (PCBNEW (6.0.6)) date 2023-01-04 14:31:25*
%MOMM*%
%LPD*%
G01*
G04 APERTURE LIST*
G04 Aperture macros list*
%AMRoundRect*
0 Rectangle with rounded corners*
0 $1 Rounding radius*
0 $2 $3 $4 $5 $6 $7 $8 $9 X,Y pos of 4 corners*
0 Add a 4 corners polygon primitive as box body*
4,1,4,$2,$3,$4,$5,$6,$7,$8,$9,$2,$3,0*
0 Add four circle primitives for the rounded corners*
1,1,$1+$1,$2,$3*
1,1,$1+$1,$4,$5*
1,1,$1+$1,$6,$7*
1,1,$1+$1,$8,$9*
0 Add four rect primitives between the rounded corners*
20,1,$1+$1,$2,$3,$4,$5,0*
20,1,$1+$1,$4,$5,$6,$7,0*
20,1,$1+$1,$6,$7,$8,$9,0*
20,1,$1+$1,$8,$9,$2,$3,0*%
G04 Aperture macros list end*
%ADD10R,1.700000X1.700000*%
%ADD11O,1.700000X1.700000*%
%ADD12R,1.050000X1.500000*%
%ADD13O,1.050000X1.500000*%
%ADD14C,2.000000*%
%ADD15C,1.600000*%
%ADD16O,1.600000X1.600000*%
%ADD17R,1.600000X1.600000*%
%ADD18C,1.400000*%
%ADD19O,1.400000X1.400000*%
%ADD20RoundRect,0.250000X-0.600000X-0.600000X0.600000X-0.600000X0.600000X0.600000X-0.600000X0.600000X0*%
%ADD21C,1.700000*%
G04 APERTURE END LIST*
D10*
%TO.C,RV5*%
X158623000Y-75311000D03*
D11*
X158623000Y-77851000D03*
X158623000Y-80391000D03*
%TD*%
D12*
%TO.C,Q2*%
X123190000Y-41635000D03*
D13*
X124460000Y-41635000D03*
X125730000Y-41635000D03*
%TD*%
D14*
%TO.C,C6*%
X106680000Y-67397000D03*
X106680000Y-62397000D03*
%TD*%
D15*
%TO.C,R36*%
X175387000Y-75057000D03*
D16*
X167767000Y-75057000D03*
%TD*%
D15*
%TO.C,R2*%
X118745000Y-81915000D03*
D16*
X118745000Y-74295000D03*
%TD*%
D17*
%TO.C,U3*%
X139065000Y-43810000D03*
D16*
X139065000Y-46350000D03*
X139065000Y-48890000D03*
X139065000Y-51430000D03*
X139065000Y-53970000D03*
X139065000Y-56510000D03*
X139065000Y-59050000D03*
X146685000Y-59050000D03*
X146685000Y-56510000D03*
X146685000Y-53970000D03*
X146685000Y-51430000D03*
X146685000Y-48890000D03*
X146685000Y-46350000D03*
X146685000Y-43810000D03*
%TD*%
D15*
%TO.C,R17*%
X160401000Y-53213000D03*
D16*
X160401000Y-60833000D03*
%TD*%
D15*
%TO.C,R28*%
X182753000Y-35433000D03*
D16*
X190373000Y-35433000D03*
%TD*%
D15*
%TO.C,R33*%
X175260000Y-58801000D03*
D16*
X182880000Y-58801000D03*
%TD*%
D17*
%TO.C,C5*%
X147867379Y-65405000D03*
D15*
X145367379Y-65405000D03*
%TD*%
%TO.C,R1*%
X111125000Y-73025000D03*
D16*
X111125000Y-65405000D03*
%TD*%
D15*
%TO.C,R14*%
X136017000Y-53975000D03*
D16*
X136017000Y-46355000D03*
%TD*%
D15*
%TO.C,R20*%
X163830000Y-64135000D03*
D16*
X171450000Y-64135000D03*
%TD*%
D18*
%TO.C,REF\u002A\u002A*%
X153543000Y-72517000D03*
D19*
X158623000Y-72517000D03*
%TD*%
D10*
%TO.C,RV3*%
X126619000Y-76342000D03*
D11*
X126619000Y-78882000D03*
X126619000Y-81422000D03*
%TD*%
D17*
%TO.C,U2*%
X106563000Y-46365000D03*
D16*
X106563000Y-48905000D03*
X106563000Y-51445000D03*
X106563000Y-53985000D03*
X114183000Y-53985000D03*
X114183000Y-51445000D03*
X114183000Y-48905000D03*
X114183000Y-46365000D03*
%TD*%
D18*
%TO.C,REF\u002A\u002A*%
X176657000Y-53213000D03*
D19*
X181737000Y-53213000D03*
%TD*%
D10*
%TO.C,J4*%
X194158000Y-81387000D03*
D11*
X194158000Y-78847000D03*
%TD*%
D15*
%TO.C,R9*%
X119380000Y-46990000D03*
D16*
X127000000Y-46990000D03*
%TD*%
D14*
%TO.C,C9*%
X153035000Y-36155000D03*
X153035000Y-31155000D03*
%TD*%
D15*
%TO.C,R16*%
X153670000Y-60960000D03*
D16*
X153670000Y-53340000D03*
%TD*%
D15*
%TO.C,R35*%
X191135000Y-57277000D03*
D16*
X191135000Y-64897000D03*
%TD*%
D18*
%TO.C,REF\u002A\u002A*%
X106807000Y-42291000D03*
X111887000Y-42291000D03*
%TD*%
D17*
%TO.C,U4*%
X190505000Y-42555000D03*
D16*
X187965000Y-42555000D03*
X185425000Y-42555000D03*
X182885000Y-42555000D03*
X180345000Y-42555000D03*
X177805000Y-42555000D03*
X175265000Y-42555000D03*
X175265000Y-50175000D03*
X177805000Y-50175000D03*
X180345000Y-50175000D03*
X182885000Y-50175000D03*
X185425000Y-50175000D03*
X187965000Y-50175000D03*
X190505000Y-50175000D03*
%TD*%
D10*
%TO.C,J8*%
X202336000Y-28849000D03*
D11*
X202336000Y-31389000D03*
%TD*%
D10*
%TO.C,RV7*%
X203581000Y-54595000D03*
D11*
X203581000Y-52055000D03*
X203581000Y-49515000D03*
%TD*%
D10*
%TO.C,RV1*%
X100990000Y-75580000D03*
D11*
X100990000Y-78120000D03*
X100990000Y-80660000D03*
%TD*%
D18*
%TO.C,REF\u002A\u002A*%
X129540000Y-46863000D03*
X129540000Y-51943000D03*
%TD*%
D15*
%TO.C,REF\u002A\u002A*%
X155829000Y-83439000D03*
D16*
X165989000Y-83439000D03*
%TD*%
D14*
%TO.C,C2*%
X106553000Y-30139000D03*
X106553000Y-35139000D03*
%TD*%
D15*
%TO.C,R30*%
X184277000Y-53467000D03*
D16*
X191897000Y-53467000D03*
%TD*%
D15*
%TO.C,R41*%
X167767000Y-33401000D03*
D16*
X175387000Y-33401000D03*
%TD*%
D10*
%TO.C,J7*%
X183236000Y-31857000D03*
D11*
X183236000Y-29317000D03*
%TD*%
D18*
%TO.C,REF\u002A\u002A*%
X193167000Y-26797000D03*
X188087000Y-26797000D03*
%TD*%
D10*
%TO.C,J6*%
X180950000Y-81387000D03*
D11*
X180950000Y-78847000D03*
%TD*%
D15*
%TO.C,R10*%
X119380000Y-54610000D03*
D16*
X127000000Y-54610000D03*
%TD*%
D12*
%TO.C,Q3*%
X184150000Y-63775000D03*
D13*
X182880000Y-63775000D03*
X181610000Y-63775000D03*
%TD*%
D15*
%TO.C,R37*%
X178435000Y-74295000D03*
D16*
X178435000Y-66675000D03*
%TD*%
D12*
%TO.C,Q1*%
X99187000Y-42185000D03*
D13*
X97917000Y-42185000D03*
X96647000Y-42185000D03*
%TD*%
D18*
%TO.C,REF\u002A\u002A*%
X124587000Y-70231000D03*
D19*
X129667000Y-70231000D03*
%TD*%
D15*
%TO.C,R31*%
X167767000Y-30099000D03*
D16*
X175387000Y-30099000D03*
%TD*%
D15*
%TO.C,R4*%
X121920000Y-81915000D03*
D16*
X121920000Y-74295000D03*
%TD*%
D14*
%TO.C,C4*%
X140335000Y-73025000D03*
X145335000Y-73025000D03*
%TD*%
%TO.C,C10*%
X158710000Y-68580000D03*
X153710000Y-68580000D03*
%TD*%
D15*
%TO.C,R25*%
X195961000Y-45339000D03*
D16*
X203581000Y-45339000D03*
%TD*%
D15*
%TO.C,R13*%
X164973000Y-44069000D03*
D16*
X164973000Y-36449000D03*
%TD*%
D14*
%TO.C,C1*%
X90043000Y-32131000D03*
X90043000Y-37131000D03*
%TD*%
D20*
%TO.C,J1*%
X90292000Y-59822000D03*
D21*
X92832000Y-59822000D03*
X90292000Y-62362000D03*
X92832000Y-62362000D03*
X90292000Y-64902000D03*
X92832000Y-64902000D03*
X90292000Y-67442000D03*
X92832000Y-67442000D03*
X90292000Y-69982000D03*
X92832000Y-69982000D03*
%TD*%
D17*
%TO.C,D3*%
X164465000Y-58420000D03*
D16*
X172085000Y-58420000D03*
%TD*%
D15*
%TO.C,R32*%
X190373000Y-38735000D03*
D16*
X197993000Y-38735000D03*
%TD*%
D15*
%TO.C,R12*%
X161671000Y-47117000D03*
D16*
X161671000Y-39497000D03*
%TD*%
D17*
%TO.C,C8*%
X100330000Y-64770000D03*
D15*
X100330000Y-67270000D03*
%TD*%
%TO.C,R39*%
X132715000Y-53975000D03*
D16*
X132715000Y-46355000D03*
%TD*%
D10*
%TO.C,J5*%
X175362000Y-81387000D03*
D11*
X175362000Y-78847000D03*
%TD*%
D15*
%TO.C,R19*%
X159385000Y-64135000D03*
D16*
X151765000Y-64135000D03*
%TD*%
D17*
%TO.C,D4*%
X172085000Y-55880000D03*
D16*
X164465000Y-55880000D03*
%TD*%
D15*
%TO.C,R23*%
X172085000Y-52705000D03*
D16*
X164465000Y-52705000D03*
%TD*%
D15*
%TO.C,R29*%
X150495000Y-41275000D03*
D16*
X150495000Y-48895000D03*
%TD*%
D15*
%TO.C,R15*%
X156845000Y-53340000D03*
D16*
X156845000Y-60960000D03*
%TD*%
D15*
%TO.C,R38*%
X184150000Y-75565000D03*
D16*
X184150000Y-67945000D03*
%TD*%
D10*
%TO.C,D5*%
X188341000Y-81407000D03*
D11*
X188341000Y-78867000D03*
%TD*%
D15*
%TO.C,R3*%
X107061000Y-75565000D03*
D16*
X114681000Y-75565000D03*
%TD*%
D15*
%TO.C,R21*%
X163830000Y-70485000D03*
D16*
X171450000Y-70485000D03*
%TD*%
D10*
%TO.C,J3*%
X97942000Y-29357000D03*
D11*
X97942000Y-31897000D03*
%TD*%
D15*
%TO.C,R42*%
X107315000Y-72390000D03*
D16*
X99695000Y-72390000D03*
%TD*%
D10*
%TO.C,RV6*%
X195580000Y-31750000D03*
D11*
X193040000Y-31750000D03*
X190500000Y-31750000D03*
%TD*%
D15*
%TO.C,R22*%
X171069000Y-42291000D03*
D16*
X171069000Y-49911000D03*
%TD*%
D15*
%TO.C,R24*%
X195961000Y-60833000D03*
D16*
X203581000Y-60833000D03*
%TD*%
D17*
%TO.C,C7*%
X100330000Y-55967621D03*
D15*
X100330000Y-58467621D03*
%TD*%
%TO.C,R6*%
X102743000Y-42291000D03*
D16*
X102743000Y-49911000D03*
%TD*%
D10*
%TO.C,SW1*%
X145415000Y-78105000D03*
D11*
X142875000Y-78105000D03*
X140335000Y-78105000D03*
X137795000Y-78105000D03*
X135255000Y-78105000D03*
X132715000Y-78105000D03*
%TD*%
D15*
%TO.C,R26*%
X139065000Y-39370000D03*
D16*
X146685000Y-39370000D03*
%TD*%
D10*
%TO.C,RV2*%
X111618000Y-81686000D03*
D11*
X109078000Y-81686000D03*
X106538000Y-81686000D03*
%TD*%
D17*
%TO.C,D2*%
X175387000Y-36449000D03*
D16*
X167767000Y-36449000D03*
%TD*%
D10*
%TO.C,RV4*%
X153543000Y-75311000D03*
D11*
X153543000Y-77851000D03*
X153543000Y-80391000D03*
%TD*%
D15*
%TO.C,R7*%
X90297000Y-47117000D03*
D16*
X97917000Y-47117000D03*
%TD*%
D17*
%TO.C,U1*%
X121295000Y-59065000D03*
D16*
X121295000Y-61605000D03*
X121295000Y-64145000D03*
X121295000Y-66685000D03*
X128915000Y-66685000D03*
X128915000Y-64145000D03*
X128915000Y-61605000D03*
X128915000Y-59065000D03*
%TD*%
D14*
%TO.C,C3*%
X115697000Y-65111000D03*
X115697000Y-60111000D03*
%TD*%
D15*
%TO.C,R34*%
X175387000Y-62357000D03*
D16*
X175387000Y-69977000D03*
%TD*%
D15*
%TO.C,R18*%
X139065000Y-36195000D03*
D16*
X146685000Y-36195000D03*
%TD*%
D15*
%TO.C,R40*%
X150495000Y-59055000D03*
D16*
X150495000Y-51435000D03*
%TD*%
D15*
%TO.C,R8*%
X114173000Y-70739000D03*
D16*
X121793000Y-70739000D03*
%TD*%
D15*
%TO.C,R11*%
X127000000Y-50800000D03*
D16*
X119380000Y-50800000D03*
%TD*%
D15*
%TO.C,R5*%
X94107000Y-37211000D03*
D16*
X101727000Y-37211000D03*
%TD*%
D15*
%TO.C,R43*%
X97917000Y-52070000D03*
D16*
X90297000Y-52070000D03*
%TD*%
D10*
%TO.C,J2*%
X95860000Y-80625000D03*
D11*
X95860000Y-78085000D03*
%TD*%
D17*
%TO.C,D1*%
X167767000Y-39497000D03*
D16*
X175387000Y-39497000D03*
%TD*%
M02*
