%FSLAX45Y45*%
G04 Gerber Fmt 4.5, Leading zero omitted, Abs format (unit mm)*
G04 Created by KiCad (PCBNEW (6.0.6)) date 2023-01-04 14:37:16*
%MOMM*%
%LPD*%
G01*
G04 APERTURE LIST*
%TA.AperFunction,Profile*%
%ADD10C,0.100000*%
%TD*%
%ADD11C,0.200000*%
%ADD12C,0.070000*%
%ADD13C,0.075000*%
%ADD14C,0.080000*%
%ADD15C,0.100000*%
G04 APERTURE END LIST*
D10*
X8128000Y-2286000D02*
X21336000Y-2286000D01*
X8128000Y-8890000D02*
X8128000Y-2286000D01*
X21336000Y-8890000D02*
X8128000Y-8890000D01*
X21336000Y-2286000D02*
X21336000Y-8890000D01*
D11*
D12*
X10645700Y-4194100D02*
X10715700Y-4264100D01*
X10715700Y-4194100D02*
X10645700Y-4264100D01*
X11153700Y-4194100D02*
X11223700Y-4264100D01*
X11223700Y-4194100D02*
X11153700Y-4264100D01*
X12423700Y-6988100D02*
X12493700Y-7058100D01*
X12493700Y-6988100D02*
X12423700Y-7058100D01*
X12919000Y-4651300D02*
X12989000Y-4721300D01*
X12989000Y-4651300D02*
X12919000Y-4721300D01*
X12919000Y-5159300D02*
X12989000Y-5229300D01*
X12989000Y-5159300D02*
X12919000Y-5229300D01*
X12931700Y-6988100D02*
X13001700Y-7058100D01*
X13001700Y-6988100D02*
X12931700Y-7058100D01*
X15319300Y-7216700D02*
X15389300Y-7286700D01*
X15389300Y-7216700D02*
X15319300Y-7286700D01*
X15827300Y-7216700D02*
X15897300Y-7286700D01*
X15897300Y-7216700D02*
X15827300Y-7286700D01*
X17630700Y-5286300D02*
X17700700Y-5356300D01*
X17700700Y-5286300D02*
X17630700Y-5356300D01*
X18138700Y-5286300D02*
X18208700Y-5356300D01*
X18208700Y-5286300D02*
X18138700Y-5356300D01*
X18773700Y-2644700D02*
X18843700Y-2714700D01*
X18843700Y-2644700D02*
X18773700Y-2714700D01*
X19281700Y-2644700D02*
X19351700Y-2714700D01*
X19351700Y-2644700D02*
X19281700Y-2714700D01*
D13*
X9702200Y-4218500D02*
G75*
G03*
X9702200Y-4218500I-37500J0D01*
G01*
X9829200Y-4218500D02*
G75*
G03*
X9829200Y-4218500I-37500J0D01*
G01*
X9956200Y-4218500D02*
G75*
G03*
X9956200Y-4218500I-37500J0D01*
G01*
X12356500Y-4163500D02*
G75*
G03*
X12356500Y-4163500I-37500J0D01*
G01*
X12483500Y-4163500D02*
G75*
G03*
X12483500Y-4163500I-37500J0D01*
G01*
X12610500Y-4163500D02*
G75*
G03*
X12610500Y-4163500I-37500J0D01*
G01*
X18198500Y-6377500D02*
G75*
G03*
X18198500Y-6377500I-37500J0D01*
G01*
X18325500Y-6377500D02*
G75*
G03*
X18325500Y-6377500I-37500J0D01*
G01*
X18452500Y-6377500D02*
G75*
G03*
X18452500Y-6377500I-37500J0D01*
G01*
D14*
X9029700Y-4671700D02*
X9029700Y-4751700D01*
X8989700Y-4711700D02*
X9069700Y-4711700D01*
X9029700Y-5167000D02*
X9029700Y-5247000D01*
X8989700Y-5207000D02*
X9069700Y-5207000D01*
X9410700Y-3681100D02*
X9410700Y-3761100D01*
X9370700Y-3721100D02*
X9450700Y-3721100D01*
X9791700Y-4671700D02*
X9791700Y-4751700D01*
X9751700Y-4711700D02*
X9831700Y-4711700D01*
X9791700Y-5167000D02*
X9791700Y-5247000D01*
X9751700Y-5207000D02*
X9831700Y-5207000D01*
X9969500Y-7199000D02*
X9969500Y-7279000D01*
X9929500Y-7239000D02*
X10009500Y-7239000D01*
X10033000Y-5556762D02*
X10033000Y-5636762D01*
X9993000Y-5596762D02*
X10073000Y-5596762D01*
X10033000Y-5806762D02*
X10033000Y-5886762D01*
X9993000Y-5846762D02*
X10073000Y-5846762D01*
X10033000Y-6437000D02*
X10033000Y-6517000D01*
X9993000Y-6477000D02*
X10073000Y-6477000D01*
X10033000Y-6687000D02*
X10033000Y-6767000D01*
X9993000Y-6727000D02*
X10073000Y-6727000D01*
X10172700Y-3681100D02*
X10172700Y-3761100D01*
X10132700Y-3721100D02*
X10212700Y-3721100D01*
X10274300Y-4189100D02*
X10274300Y-4269100D01*
X10234300Y-4229100D02*
X10314300Y-4229100D01*
X10274300Y-4951100D02*
X10274300Y-5031100D01*
X10234300Y-4991100D02*
X10314300Y-4991100D01*
X10656300Y-4596500D02*
X10656300Y-4676500D01*
X10616300Y-4636500D02*
X10696300Y-4636500D01*
X10656300Y-4850500D02*
X10656300Y-4930500D01*
X10616300Y-4890500D02*
X10696300Y-4890500D01*
X10656300Y-5104500D02*
X10656300Y-5184500D01*
X10616300Y-5144500D02*
X10696300Y-5144500D01*
X10656300Y-5358500D02*
X10656300Y-5438500D01*
X10616300Y-5398500D02*
X10696300Y-5398500D01*
X10706100Y-7516500D02*
X10706100Y-7596500D01*
X10666100Y-7556500D02*
X10746100Y-7556500D01*
X10731500Y-7199000D02*
X10731500Y-7279000D01*
X10691500Y-7239000D02*
X10771500Y-7239000D01*
X11112500Y-6500500D02*
X11112500Y-6580500D01*
X11072500Y-6540500D02*
X11152500Y-6540500D01*
X11112500Y-7262500D02*
X11112500Y-7342500D01*
X11072500Y-7302500D02*
X11152500Y-7302500D01*
X11417300Y-7033900D02*
X11417300Y-7113900D01*
X11377300Y-7073900D02*
X11457300Y-7073900D01*
X11418300Y-4596500D02*
X11418300Y-4676500D01*
X11378300Y-4636500D02*
X11458300Y-4636500D01*
X11418300Y-4850500D02*
X11418300Y-4930500D01*
X11378300Y-4890500D02*
X11458300Y-4890500D01*
X11418300Y-5104500D02*
X11418300Y-5184500D01*
X11378300Y-5144500D02*
X11458300Y-5144500D01*
X11418300Y-5358500D02*
X11418300Y-5438500D01*
X11378300Y-5398500D02*
X11458300Y-5398500D01*
X11468100Y-7516500D02*
X11468100Y-7596500D01*
X11428100Y-7556500D02*
X11508100Y-7556500D01*
X11874500Y-7389500D02*
X11874500Y-7469500D01*
X11834500Y-7429500D02*
X11914500Y-7429500D01*
X11874500Y-8151500D02*
X11874500Y-8231500D01*
X11834500Y-8191500D02*
X11914500Y-8191500D01*
X11938000Y-4659000D02*
X11938000Y-4739000D01*
X11898000Y-4699000D02*
X11978000Y-4699000D01*
X11938000Y-5040000D02*
X11938000Y-5120000D01*
X11898000Y-5080000D02*
X11978000Y-5080000D01*
X11938000Y-5421000D02*
X11938000Y-5501000D01*
X11898000Y-5461000D02*
X11978000Y-5461000D01*
X12129500Y-5866500D02*
X12129500Y-5946500D01*
X12089500Y-5906500D02*
X12169500Y-5906500D01*
X12129500Y-6120500D02*
X12129500Y-6200500D01*
X12089500Y-6160500D02*
X12169500Y-6160500D01*
X12129500Y-6374500D02*
X12129500Y-6454500D01*
X12089500Y-6414500D02*
X12169500Y-6414500D01*
X12129500Y-6628500D02*
X12129500Y-6708500D01*
X12089500Y-6668500D02*
X12169500Y-6668500D01*
X12179300Y-7033900D02*
X12179300Y-7113900D01*
X12139300Y-7073900D02*
X12219300Y-7073900D01*
X12192000Y-7389500D02*
X12192000Y-7469500D01*
X12152000Y-7429500D02*
X12232000Y-7429500D01*
X12192000Y-8151500D02*
X12192000Y-8231500D01*
X12152000Y-8191500D02*
X12232000Y-8191500D01*
X12700000Y-4659000D02*
X12700000Y-4739000D01*
X12660000Y-4699000D02*
X12740000Y-4699000D01*
X12700000Y-5040000D02*
X12700000Y-5120000D01*
X12660000Y-5080000D02*
X12740000Y-5080000D01*
X12700000Y-5421000D02*
X12700000Y-5501000D01*
X12660000Y-5461000D02*
X12740000Y-5461000D01*
X12891500Y-5866500D02*
X12891500Y-5946500D01*
X12851500Y-5906500D02*
X12931500Y-5906500D01*
X12891500Y-6120500D02*
X12891500Y-6200500D01*
X12851500Y-6160500D02*
X12931500Y-6160500D01*
X12891500Y-6374500D02*
X12891500Y-6454500D01*
X12851500Y-6414500D02*
X12931500Y-6414500D01*
X12891500Y-6628500D02*
X12891500Y-6708500D01*
X12851500Y-6668500D02*
X12931500Y-6668500D01*
X13271500Y-4595500D02*
X13271500Y-4675500D01*
X13231500Y-4635500D02*
X13311500Y-4635500D01*
X13271500Y-5357500D02*
X13271500Y-5437500D01*
X13231500Y-5397500D02*
X13311500Y-5397500D01*
X13601700Y-4595500D02*
X13601700Y-4675500D01*
X13561700Y-4635500D02*
X13641700Y-4635500D01*
X13601700Y-5357500D02*
X13601700Y-5437500D01*
X13561700Y-5397500D02*
X13641700Y-5397500D01*
X13906500Y-3579500D02*
X13906500Y-3659500D01*
X13866500Y-3619500D02*
X13946500Y-3619500D01*
X13906500Y-3897000D02*
X13906500Y-3977000D01*
X13866500Y-3937000D02*
X13946500Y-3937000D01*
X13906500Y-4341000D02*
X13906500Y-4421000D01*
X13866500Y-4381000D02*
X13946500Y-4381000D01*
X13906500Y-4595000D02*
X13906500Y-4675000D01*
X13866500Y-4635000D02*
X13946500Y-4635000D01*
X13906500Y-4849000D02*
X13906500Y-4929000D01*
X13866500Y-4889000D02*
X13946500Y-4889000D01*
X13906500Y-5103000D02*
X13906500Y-5183000D01*
X13866500Y-5143000D02*
X13946500Y-5143000D01*
X13906500Y-5357000D02*
X13906500Y-5437000D01*
X13866500Y-5397000D02*
X13946500Y-5397000D01*
X13906500Y-5611000D02*
X13906500Y-5691000D01*
X13866500Y-5651000D02*
X13946500Y-5651000D01*
X13906500Y-5865000D02*
X13906500Y-5945000D01*
X13866500Y-5905000D02*
X13946500Y-5905000D01*
X14536738Y-6500500D02*
X14536738Y-6580500D01*
X14496738Y-6540500D02*
X14576738Y-6540500D01*
X14668500Y-3579500D02*
X14668500Y-3659500D01*
X14628500Y-3619500D02*
X14708500Y-3619500D01*
X14668500Y-3897000D02*
X14668500Y-3977000D01*
X14628500Y-3937000D02*
X14708500Y-3937000D01*
X14668500Y-4341000D02*
X14668500Y-4421000D01*
X14628500Y-4381000D02*
X14708500Y-4381000D01*
X14668500Y-4595000D02*
X14668500Y-4675000D01*
X14628500Y-4635000D02*
X14708500Y-4635000D01*
X14668500Y-4849000D02*
X14668500Y-4929000D01*
X14628500Y-4889000D02*
X14708500Y-4889000D01*
X14668500Y-5103000D02*
X14668500Y-5183000D01*
X14628500Y-5143000D02*
X14708500Y-5143000D01*
X14668500Y-5357000D02*
X14668500Y-5437000D01*
X14628500Y-5397000D02*
X14708500Y-5397000D01*
X14668500Y-5611000D02*
X14668500Y-5691000D01*
X14628500Y-5651000D02*
X14708500Y-5651000D01*
X14668500Y-5865000D02*
X14668500Y-5945000D01*
X14628500Y-5905000D02*
X14708500Y-5905000D01*
X14786738Y-6500500D02*
X14786738Y-6580500D01*
X14746738Y-6540500D02*
X14826738Y-6540500D01*
X15049500Y-4087500D02*
X15049500Y-4167500D01*
X15009500Y-4127500D02*
X15089500Y-4127500D01*
X15049500Y-4849500D02*
X15049500Y-4929500D01*
X15009500Y-4889500D02*
X15089500Y-4889500D01*
X15049500Y-5103500D02*
X15049500Y-5183500D01*
X15009500Y-5143500D02*
X15089500Y-5143500D01*
X15049500Y-5865500D02*
X15049500Y-5945500D01*
X15009500Y-5905500D02*
X15089500Y-5905500D01*
X15176500Y-6373500D02*
X15176500Y-6453500D01*
X15136500Y-6413500D02*
X15216500Y-6413500D01*
X15367000Y-5294000D02*
X15367000Y-5374000D01*
X15327000Y-5334000D02*
X15407000Y-5334000D01*
X15367000Y-6056000D02*
X15367000Y-6136000D01*
X15327000Y-6096000D02*
X15407000Y-6096000D01*
X15582900Y-8303900D02*
X15582900Y-8383900D01*
X15542900Y-8343900D02*
X15622900Y-8343900D01*
X15684500Y-5294000D02*
X15684500Y-5374000D01*
X15644500Y-5334000D02*
X15724500Y-5334000D01*
X15684500Y-6056000D02*
X15684500Y-6136000D01*
X15644500Y-6096000D02*
X15724500Y-6096000D01*
X15938500Y-6373500D02*
X15938500Y-6453500D01*
X15898500Y-6413500D02*
X15978500Y-6413500D01*
X16040100Y-5281300D02*
X16040100Y-5361300D01*
X16000100Y-5321300D02*
X16080100Y-5321300D01*
X16040100Y-6043300D02*
X16040100Y-6123300D01*
X16000100Y-6083300D02*
X16080100Y-6083300D01*
X16167100Y-3909700D02*
X16167100Y-3989700D01*
X16127100Y-3949700D02*
X16207100Y-3949700D01*
X16167100Y-4671700D02*
X16167100Y-4751700D01*
X16127100Y-4711700D02*
X16207100Y-4711700D01*
X16383000Y-6373500D02*
X16383000Y-6453500D01*
X16343000Y-6413500D02*
X16423000Y-6413500D01*
X16383000Y-7008500D02*
X16383000Y-7088500D01*
X16343000Y-7048500D02*
X16423000Y-7048500D01*
X16446500Y-5230500D02*
X16446500Y-5310500D01*
X16406500Y-5270500D02*
X16486500Y-5270500D01*
X16446500Y-5548000D02*
X16446500Y-5628000D01*
X16406500Y-5588000D02*
X16486500Y-5588000D01*
X16446500Y-5802000D02*
X16446500Y-5882000D01*
X16406500Y-5842000D02*
X16486500Y-5842000D01*
X16497300Y-3604900D02*
X16497300Y-3684900D01*
X16457300Y-3644900D02*
X16537300Y-3644900D01*
X16497300Y-4366900D02*
X16497300Y-4446900D01*
X16457300Y-4406900D02*
X16537300Y-4406900D01*
X16598900Y-8303900D02*
X16598900Y-8383900D01*
X16558900Y-8343900D02*
X16638900Y-8343900D01*
X16776700Y-2969900D02*
X16776700Y-3049900D01*
X16736700Y-3009900D02*
X16816700Y-3009900D01*
X16776700Y-3300100D02*
X16776700Y-3380100D01*
X16736700Y-3340100D02*
X16816700Y-3340100D01*
X16776700Y-3604900D02*
X16776700Y-3684900D01*
X16736700Y-3644900D02*
X16816700Y-3644900D01*
X16776700Y-3909700D02*
X16776700Y-3989700D01*
X16736700Y-3949700D02*
X16816700Y-3949700D01*
X16776700Y-7465700D02*
X16776700Y-7545700D01*
X16736700Y-7505700D02*
X16816700Y-7505700D01*
X17106900Y-4189100D02*
X17106900Y-4269100D01*
X17066900Y-4229100D02*
X17146900Y-4229100D01*
X17106900Y-4951100D02*
X17106900Y-5031100D01*
X17066900Y-4991100D02*
X17146900Y-4991100D01*
X17145000Y-6373500D02*
X17145000Y-6453500D01*
X17105000Y-6413500D02*
X17185000Y-6413500D01*
X17145000Y-7008500D02*
X17145000Y-7088500D01*
X17105000Y-7048500D02*
X17185000Y-7048500D01*
X17208500Y-5230500D02*
X17208500Y-5310500D01*
X17168500Y-5270500D02*
X17248500Y-5270500D01*
X17208500Y-5548000D02*
X17208500Y-5628000D01*
X17168500Y-5588000D02*
X17248500Y-5588000D01*
X17208500Y-5802000D02*
X17208500Y-5882000D01*
X17168500Y-5842000D02*
X17248500Y-5842000D01*
X17526000Y-5840100D02*
X17526000Y-5920100D01*
X17486000Y-5880100D02*
X17566000Y-5880100D01*
X17526500Y-4215500D02*
X17526500Y-4295500D01*
X17486500Y-4255500D02*
X17566500Y-4255500D01*
X17526500Y-4977500D02*
X17526500Y-5057500D01*
X17486500Y-5017500D02*
X17566500Y-5017500D01*
X17538700Y-2969900D02*
X17538700Y-3049900D01*
X17498700Y-3009900D02*
X17578700Y-3009900D01*
X17538700Y-3300100D02*
X17538700Y-3380100D01*
X17498700Y-3340100D02*
X17578700Y-3340100D01*
X17538700Y-3604900D02*
X17538700Y-3684900D01*
X17498700Y-3644900D02*
X17578700Y-3644900D01*
X17538700Y-3909700D02*
X17538700Y-3989700D01*
X17498700Y-3949700D02*
X17578700Y-3949700D01*
X17538700Y-6195700D02*
X17538700Y-6275700D01*
X17498700Y-6235700D02*
X17578700Y-6235700D01*
X17538700Y-6957700D02*
X17538700Y-7037700D01*
X17498700Y-6997700D02*
X17578700Y-6997700D01*
X17538700Y-7465700D02*
X17538700Y-7545700D01*
X17498700Y-7505700D02*
X17578700Y-7505700D01*
X17780500Y-4215500D02*
X17780500Y-4295500D01*
X17740500Y-4255500D02*
X17820500Y-4255500D01*
X17780500Y-4977500D02*
X17780500Y-5057500D01*
X17740500Y-5017500D02*
X17820500Y-5017500D01*
X17843500Y-6627500D02*
X17843500Y-6707500D01*
X17803500Y-6667500D02*
X17883500Y-6667500D01*
X17843500Y-7389500D02*
X17843500Y-7469500D01*
X17803500Y-7429500D02*
X17883500Y-7429500D01*
X18034500Y-4215500D02*
X18034500Y-4295500D01*
X17994500Y-4255500D02*
X18074500Y-4255500D01*
X18034500Y-4977500D02*
X18034500Y-5057500D01*
X17994500Y-5017500D02*
X18074500Y-5017500D01*
X18275300Y-3503300D02*
X18275300Y-3583300D01*
X18235300Y-3543300D02*
X18315300Y-3543300D01*
X18288000Y-5840100D02*
X18288000Y-5920100D01*
X18248000Y-5880100D02*
X18328000Y-5880100D01*
X18288500Y-4215500D02*
X18288500Y-4295500D01*
X18248500Y-4255500D02*
X18328500Y-4255500D01*
X18288500Y-4977500D02*
X18288500Y-5057500D01*
X18248500Y-5017500D02*
X18328500Y-5017500D01*
X18415000Y-6754500D02*
X18415000Y-6834500D01*
X18375000Y-6794500D02*
X18455000Y-6794500D01*
X18415000Y-7516500D02*
X18415000Y-7596500D01*
X18375000Y-7556500D02*
X18455000Y-7556500D01*
X18427700Y-5306700D02*
X18427700Y-5386700D01*
X18387700Y-5346700D02*
X18467700Y-5346700D01*
X18542500Y-4215500D02*
X18542500Y-4295500D01*
X18502500Y-4255500D02*
X18582500Y-4255500D01*
X18542500Y-4977500D02*
X18542500Y-5057500D01*
X18502500Y-5017500D02*
X18582500Y-5017500D01*
X18796500Y-4215500D02*
X18796500Y-4295500D01*
X18756500Y-4255500D02*
X18836500Y-4255500D01*
X18796500Y-4977500D02*
X18796500Y-5057500D01*
X18756500Y-5017500D02*
X18836500Y-5017500D01*
X19037300Y-3503300D02*
X19037300Y-3583300D01*
X18997300Y-3543300D02*
X19077300Y-3543300D01*
X19037300Y-3833500D02*
X19037300Y-3913500D01*
X18997300Y-3873500D02*
X19077300Y-3873500D01*
X19050500Y-4215500D02*
X19050500Y-4295500D01*
X19010500Y-4255500D02*
X19090500Y-4255500D01*
X19050500Y-4977500D02*
X19050500Y-5057500D01*
X19010500Y-5017500D02*
X19090500Y-5017500D01*
X19113500Y-5687700D02*
X19113500Y-5767700D01*
X19073500Y-5727700D02*
X19153500Y-5727700D01*
X19113500Y-6449700D02*
X19113500Y-6529700D01*
X19073500Y-6489700D02*
X19153500Y-6489700D01*
X19189700Y-5306700D02*
X19189700Y-5386700D01*
X19149700Y-5346700D02*
X19229700Y-5346700D01*
X19596100Y-4493900D02*
X19596100Y-4573900D01*
X19556100Y-4533900D02*
X19636100Y-4533900D01*
X19596100Y-6043300D02*
X19596100Y-6123300D01*
X19556100Y-6083300D02*
X19636100Y-6083300D01*
X19799300Y-3833500D02*
X19799300Y-3913500D01*
X19759300Y-3873500D02*
X19839300Y-3873500D01*
X20358100Y-4493900D02*
X20358100Y-4573900D01*
X20318100Y-4533900D02*
X20398100Y-4533900D01*
X20358100Y-6043300D02*
X20358100Y-6123300D01*
X20318100Y-6083300D02*
X20398100Y-6083300D01*
D15*
X9039656Y-3248456D02*
X9039656Y-3177744D01*
X8968944Y-3177744D01*
X8968944Y-3248456D01*
X9039656Y-3248456D01*
X9039656Y-3748456D02*
X9039656Y-3677744D01*
X8968944Y-3677744D01*
X8968944Y-3748456D01*
X9039656Y-3748456D01*
X9064556Y-6017556D02*
X9064556Y-5946844D01*
X8993844Y-5946844D01*
X8993844Y-6017556D01*
X9064556Y-6017556D01*
X9064556Y-6271556D02*
X9064556Y-6200844D01*
X8993844Y-6200844D01*
X8993844Y-6271556D01*
X9064556Y-6271556D01*
X9064556Y-6525556D02*
X9064556Y-6454844D01*
X8993844Y-6454844D01*
X8993844Y-6525556D01*
X9064556Y-6525556D01*
X9064556Y-6779556D02*
X9064556Y-6708844D01*
X8993844Y-6708844D01*
X8993844Y-6779556D01*
X9064556Y-6779556D01*
X9064556Y-7033556D02*
X9064556Y-6962844D01*
X8993844Y-6962844D01*
X8993844Y-7033556D01*
X9064556Y-7033556D01*
X9318556Y-6017556D02*
X9318556Y-5946844D01*
X9247844Y-5946844D01*
X9247844Y-6017556D01*
X9318556Y-6017556D01*
X9318556Y-6271556D02*
X9318556Y-6200844D01*
X9247844Y-6200844D01*
X9247844Y-6271556D01*
X9318556Y-6271556D01*
X9318556Y-6525556D02*
X9318556Y-6454844D01*
X9247844Y-6454844D01*
X9247844Y-6525556D01*
X9318556Y-6525556D01*
X9318556Y-6779556D02*
X9318556Y-6708844D01*
X9247844Y-6708844D01*
X9247844Y-6779556D01*
X9318556Y-6779556D01*
X9318556Y-7033556D02*
X9318556Y-6962844D01*
X9247844Y-6962844D01*
X9247844Y-7033556D01*
X9318556Y-7033556D01*
X9621356Y-7843856D02*
X9621356Y-7773144D01*
X9550644Y-7773144D01*
X9550644Y-7843856D01*
X9621356Y-7843856D01*
X9621356Y-8097856D02*
X9621356Y-8027144D01*
X9550644Y-8027144D01*
X9550644Y-8097856D01*
X9621356Y-8097856D01*
X9829556Y-2971056D02*
X9829556Y-2900344D01*
X9758844Y-2900344D01*
X9758844Y-2971056D01*
X9829556Y-2971056D01*
X9829556Y-3225056D02*
X9829556Y-3154344D01*
X9758844Y-3154344D01*
X9758844Y-3225056D01*
X9829556Y-3225056D01*
X10134356Y-7593356D02*
X10134356Y-7522644D01*
X10063644Y-7522644D01*
X10063644Y-7593356D01*
X10134356Y-7593356D01*
X10134356Y-7847356D02*
X10134356Y-7776644D01*
X10063644Y-7776644D01*
X10063644Y-7847356D01*
X10134356Y-7847356D01*
X10134356Y-8101356D02*
X10134356Y-8030644D01*
X10063644Y-8030644D01*
X10063644Y-8101356D01*
X10134356Y-8101356D01*
X10689156Y-8203956D02*
X10689156Y-8133244D01*
X10618444Y-8133244D01*
X10618444Y-8203956D01*
X10689156Y-8203956D01*
X10690656Y-3049256D02*
X10690656Y-2978544D01*
X10619944Y-2978544D01*
X10619944Y-3049256D01*
X10690656Y-3049256D01*
X10690656Y-3549256D02*
X10690656Y-3478544D01*
X10619944Y-3478544D01*
X10619944Y-3549256D01*
X10690656Y-3549256D01*
X10703356Y-6275056D02*
X10703356Y-6204344D01*
X10632644Y-6204344D01*
X10632644Y-6275056D01*
X10703356Y-6275056D01*
X10703356Y-6775056D02*
X10703356Y-6704344D01*
X10632644Y-6704344D01*
X10632644Y-6775056D01*
X10703356Y-6775056D01*
X10943156Y-8203956D02*
X10943156Y-8133244D01*
X10872444Y-8133244D01*
X10872444Y-8203956D01*
X10943156Y-8203956D01*
X11197156Y-8203956D02*
X11197156Y-8133244D01*
X11126444Y-8133244D01*
X11126444Y-8203956D01*
X11197156Y-8203956D01*
X11605056Y-6046456D02*
X11605056Y-5975744D01*
X11534344Y-5975744D01*
X11534344Y-6046456D01*
X11605056Y-6046456D01*
X11605056Y-6546456D02*
X11605056Y-6475744D01*
X11534344Y-6475744D01*
X11534344Y-6546456D01*
X11605056Y-6546456D01*
X12697256Y-7669556D02*
X12697256Y-7598844D01*
X12626544Y-7598844D01*
X12626544Y-7669556D01*
X12697256Y-7669556D01*
X12697256Y-7923556D02*
X12697256Y-7852844D01*
X12626544Y-7852844D01*
X12626544Y-7923556D01*
X12697256Y-7923556D01*
X12697256Y-8177556D02*
X12697256Y-8106844D01*
X12626544Y-8106844D01*
X12626544Y-8177556D01*
X12697256Y-8177556D01*
X13306856Y-7845856D02*
X13306856Y-7775144D01*
X13236144Y-7775144D01*
X13236144Y-7845856D01*
X13306856Y-7845856D01*
X13560856Y-7845856D02*
X13560856Y-7775144D01*
X13490144Y-7775144D01*
X13490144Y-7845856D01*
X13560856Y-7845856D01*
X13814856Y-7845856D02*
X13814856Y-7775144D01*
X13744144Y-7775144D01*
X13744144Y-7845856D01*
X13814856Y-7845856D01*
X14068856Y-7337856D02*
X14068856Y-7267144D01*
X13998144Y-7267144D01*
X13998144Y-7337856D01*
X14068856Y-7337856D01*
X14068856Y-7845856D02*
X14068856Y-7775144D01*
X13998144Y-7775144D01*
X13998144Y-7845856D01*
X14068856Y-7845856D01*
X14322856Y-7845856D02*
X14322856Y-7775144D01*
X14252144Y-7775144D01*
X14252144Y-7845856D01*
X14322856Y-7845856D01*
X14568856Y-7337856D02*
X14568856Y-7267144D01*
X14498144Y-7267144D01*
X14498144Y-7337856D01*
X14568856Y-7337856D01*
X14576856Y-7845856D02*
X14576856Y-7775144D01*
X14506144Y-7775144D01*
X14506144Y-7845856D01*
X14576856Y-7845856D01*
X15338856Y-3150856D02*
X15338856Y-3080144D01*
X15268144Y-3080144D01*
X15268144Y-3150856D01*
X15338856Y-3150856D01*
X15338856Y-3650856D02*
X15338856Y-3580144D01*
X15268144Y-3580144D01*
X15268144Y-3650856D01*
X15338856Y-3650856D01*
X15389656Y-7566456D02*
X15389656Y-7495744D01*
X15318944Y-7495744D01*
X15318944Y-7566456D01*
X15389656Y-7566456D01*
X15389656Y-7820456D02*
X15389656Y-7749744D01*
X15318944Y-7749744D01*
X15318944Y-7820456D01*
X15389656Y-7820456D01*
X15389656Y-8074456D02*
X15389656Y-8003744D01*
X15318944Y-8003744D01*
X15318944Y-8074456D01*
X15389656Y-8074456D01*
X15406356Y-6893356D02*
X15406356Y-6822644D01*
X15335644Y-6822644D01*
X15335644Y-6893356D01*
X15406356Y-6893356D01*
X15897656Y-7566456D02*
X15897656Y-7495744D01*
X15826944Y-7495744D01*
X15826944Y-7566456D01*
X15897656Y-7566456D01*
X15897656Y-7820456D02*
X15897656Y-7749744D01*
X15826944Y-7749744D01*
X15826944Y-7820456D01*
X15897656Y-7820456D01*
X15897656Y-8074456D02*
X15897656Y-8003744D01*
X15826944Y-8003744D01*
X15826944Y-8074456D01*
X15897656Y-8074456D01*
X15906356Y-6893356D02*
X15906356Y-6822644D01*
X15835644Y-6822644D01*
X15835644Y-6893356D01*
X15906356Y-6893356D01*
X17571556Y-7920056D02*
X17571556Y-7849344D01*
X17500844Y-7849344D01*
X17500844Y-7920056D01*
X17571556Y-7920056D01*
X17571556Y-8174056D02*
X17571556Y-8103344D01*
X17500844Y-8103344D01*
X17500844Y-8174056D01*
X17571556Y-8174056D01*
X18130356Y-7920056D02*
X18130356Y-7849344D01*
X18059644Y-7849344D01*
X18059644Y-7920056D01*
X18130356Y-7920056D01*
X18130356Y-8174056D02*
X18130356Y-8103344D01*
X18059644Y-8103344D01*
X18059644Y-8174056D01*
X18130356Y-8174056D01*
X18358956Y-2967056D02*
X18358956Y-2896344D01*
X18288244Y-2896344D01*
X18288244Y-2967056D01*
X18358956Y-2967056D01*
X18358956Y-3221056D02*
X18358956Y-3150344D01*
X18288244Y-3150344D01*
X18288244Y-3221056D01*
X18358956Y-3221056D01*
X18869456Y-7922056D02*
X18869456Y-7851344D01*
X18798744Y-7851344D01*
X18798744Y-7922056D01*
X18869456Y-7922056D01*
X18869456Y-8176056D02*
X18869456Y-8105344D01*
X18798744Y-8105344D01*
X18798744Y-8176056D01*
X18869456Y-8176056D01*
X19085356Y-3210356D02*
X19085356Y-3139644D01*
X19014644Y-3139644D01*
X19014644Y-3210356D01*
X19085356Y-3210356D01*
X19339356Y-3210356D02*
X19339356Y-3139644D01*
X19268644Y-3139644D01*
X19268644Y-3210356D01*
X19339356Y-3210356D01*
X19451156Y-7920056D02*
X19451156Y-7849344D01*
X19380444Y-7849344D01*
X19380444Y-7920056D01*
X19451156Y-7920056D01*
X19451156Y-8174056D02*
X19451156Y-8103344D01*
X19380444Y-8103344D01*
X19380444Y-8174056D01*
X19451156Y-8174056D01*
X19593356Y-3210356D02*
X19593356Y-3139644D01*
X19522644Y-3139644D01*
X19522644Y-3210356D01*
X19593356Y-3210356D01*
X20268956Y-2920256D02*
X20268956Y-2849544D01*
X20198244Y-2849544D01*
X20198244Y-2920256D01*
X20268956Y-2920256D01*
X20268956Y-3174256D02*
X20268956Y-3103544D01*
X20198244Y-3103544D01*
X20198244Y-3174256D01*
X20268956Y-3174256D01*
X20393456Y-4986856D02*
X20393456Y-4916144D01*
X20322744Y-4916144D01*
X20322744Y-4986856D01*
X20393456Y-4986856D01*
X20393456Y-5240856D02*
X20393456Y-5170144D01*
X20322744Y-5170144D01*
X20322744Y-5240856D01*
X20393456Y-5240856D01*
X20393456Y-5494856D02*
X20393456Y-5424144D01*
X20322744Y-5424144D01*
X20322744Y-5494856D01*
X20393456Y-5494856D01*
D11*
X8380619Y-9205476D02*
X8380619Y-9005476D01*
X8428238Y-9005476D01*
X8456810Y-9015000D01*
X8475857Y-9034048D01*
X8485381Y-9053095D01*
X8494905Y-9091190D01*
X8494905Y-9119762D01*
X8485381Y-9157857D01*
X8475857Y-9176905D01*
X8456810Y-9195952D01*
X8428238Y-9205476D01*
X8380619Y-9205476D01*
X8580619Y-9205476D02*
X8580619Y-9072143D01*
X8580619Y-9110238D02*
X8590143Y-9091190D01*
X8599667Y-9081667D01*
X8618714Y-9072143D01*
X8637762Y-9072143D01*
X8704429Y-9205476D02*
X8704429Y-9072143D01*
X8704429Y-9005476D02*
X8694905Y-9015000D01*
X8704429Y-9024524D01*
X8713952Y-9015000D01*
X8704429Y-9005476D01*
X8704429Y-9024524D01*
X8828238Y-9205476D02*
X8809190Y-9195952D01*
X8799667Y-9176905D01*
X8799667Y-9005476D01*
X8933000Y-9205476D02*
X8913952Y-9195952D01*
X8904429Y-9176905D01*
X8904429Y-9005476D01*
X9161571Y-9205476D02*
X9161571Y-9005476D01*
X9228238Y-9148333D01*
X9294905Y-9005476D01*
X9294905Y-9205476D01*
X9475857Y-9205476D02*
X9475857Y-9100714D01*
X9466333Y-9081667D01*
X9447286Y-9072143D01*
X9409190Y-9072143D01*
X9390143Y-9081667D01*
X9475857Y-9195952D02*
X9456810Y-9205476D01*
X9409190Y-9205476D01*
X9390143Y-9195952D01*
X9380619Y-9176905D01*
X9380619Y-9157857D01*
X9390143Y-9138810D01*
X9409190Y-9129286D01*
X9456810Y-9129286D01*
X9475857Y-9119762D01*
X9571095Y-9072143D02*
X9571095Y-9272143D01*
X9571095Y-9081667D02*
X9590143Y-9072143D01*
X9628238Y-9072143D01*
X9647286Y-9081667D01*
X9656810Y-9091190D01*
X9666333Y-9110238D01*
X9666333Y-9167381D01*
X9656810Y-9186429D01*
X9647286Y-9195952D01*
X9628238Y-9205476D01*
X9590143Y-9205476D01*
X9571095Y-9195952D01*
X9752048Y-9186429D02*
X9761571Y-9195952D01*
X9752048Y-9205476D01*
X9742524Y-9195952D01*
X9752048Y-9186429D01*
X9752048Y-9205476D01*
X9752048Y-9081667D02*
X9761571Y-9091190D01*
X9752048Y-9100714D01*
X9742524Y-9091190D01*
X9752048Y-9081667D01*
X9752048Y-9100714D01*
D12*
X8053000Y-9500000D02*
X8123000Y-9570000D01*
X8123000Y-9500000D02*
X8053000Y-9570000D01*
D11*
X8418714Y-9425476D02*
X8437762Y-9425476D01*
X8456810Y-9435000D01*
X8466333Y-9444524D01*
X8475857Y-9463571D01*
X8485381Y-9501667D01*
X8485381Y-9549286D01*
X8475857Y-9587381D01*
X8466333Y-9606429D01*
X8456810Y-9615952D01*
X8437762Y-9625476D01*
X8418714Y-9625476D01*
X8399667Y-9615952D01*
X8390143Y-9606429D01*
X8380619Y-9587381D01*
X8371095Y-9549286D01*
X8371095Y-9501667D01*
X8380619Y-9463571D01*
X8390143Y-9444524D01*
X8399667Y-9435000D01*
X8418714Y-9425476D01*
X8571095Y-9606429D02*
X8580619Y-9615952D01*
X8571095Y-9625476D01*
X8561571Y-9615952D01*
X8571095Y-9606429D01*
X8571095Y-9625476D01*
X8647286Y-9425476D02*
X8780619Y-9425476D01*
X8694905Y-9625476D01*
X8894905Y-9425476D02*
X8913952Y-9425476D01*
X8933000Y-9435000D01*
X8942524Y-9444524D01*
X8952048Y-9463571D01*
X8961571Y-9501667D01*
X8961571Y-9549286D01*
X8952048Y-9587381D01*
X8942524Y-9606429D01*
X8933000Y-9615952D01*
X8913952Y-9625476D01*
X8894905Y-9625476D01*
X8875857Y-9615952D01*
X8866333Y-9606429D01*
X8856810Y-9587381D01*
X8847286Y-9549286D01*
X8847286Y-9501667D01*
X8856810Y-9463571D01*
X8866333Y-9444524D01*
X8875857Y-9435000D01*
X8894905Y-9425476D01*
X9085381Y-9425476D02*
X9104429Y-9425476D01*
X9123476Y-9435000D01*
X9133000Y-9444524D01*
X9142524Y-9463571D01*
X9152048Y-9501667D01*
X9152048Y-9549286D01*
X9142524Y-9587381D01*
X9133000Y-9606429D01*
X9123476Y-9615952D01*
X9104429Y-9625476D01*
X9085381Y-9625476D01*
X9066333Y-9615952D01*
X9056810Y-9606429D01*
X9047286Y-9587381D01*
X9037762Y-9549286D01*
X9037762Y-9501667D01*
X9047286Y-9463571D01*
X9056810Y-9444524D01*
X9066333Y-9435000D01*
X9085381Y-9425476D01*
X9237762Y-9625476D02*
X9237762Y-9492143D01*
X9237762Y-9511190D02*
X9247286Y-9501667D01*
X9266333Y-9492143D01*
X9294905Y-9492143D01*
X9313952Y-9501667D01*
X9323476Y-9520714D01*
X9323476Y-9625476D01*
X9323476Y-9520714D02*
X9333000Y-9501667D01*
X9352048Y-9492143D01*
X9380619Y-9492143D01*
X9399667Y-9501667D01*
X9409190Y-9520714D01*
X9409190Y-9625476D01*
X9504429Y-9625476D02*
X9504429Y-9492143D01*
X9504429Y-9511190D02*
X9513952Y-9501667D01*
X9533000Y-9492143D01*
X9561571Y-9492143D01*
X9580619Y-9501667D01*
X9590143Y-9520714D01*
X9590143Y-9625476D01*
X9590143Y-9520714D02*
X9599667Y-9501667D01*
X9618714Y-9492143D01*
X9647286Y-9492143D01*
X9666333Y-9501667D01*
X9675857Y-9520714D01*
X9675857Y-9625476D01*
X10066333Y-9415952D02*
X9894905Y-9673095D01*
X10323476Y-9425476D02*
X10342524Y-9425476D01*
X10361571Y-9435000D01*
X10371095Y-9444524D01*
X10380619Y-9463571D01*
X10390143Y-9501667D01*
X10390143Y-9549286D01*
X10380619Y-9587381D01*
X10371095Y-9606429D01*
X10361571Y-9615952D01*
X10342524Y-9625476D01*
X10323476Y-9625476D01*
X10304429Y-9615952D01*
X10294905Y-9606429D01*
X10285381Y-9587381D01*
X10275857Y-9549286D01*
X10275857Y-9501667D01*
X10285381Y-9463571D01*
X10294905Y-9444524D01*
X10304429Y-9435000D01*
X10323476Y-9425476D01*
X10475857Y-9606429D02*
X10485381Y-9615952D01*
X10475857Y-9625476D01*
X10466333Y-9615952D01*
X10475857Y-9606429D01*
X10475857Y-9625476D01*
X10609190Y-9425476D02*
X10628238Y-9425476D01*
X10647286Y-9435000D01*
X10656810Y-9444524D01*
X10666333Y-9463571D01*
X10675857Y-9501667D01*
X10675857Y-9549286D01*
X10666333Y-9587381D01*
X10656810Y-9606429D01*
X10647286Y-9615952D01*
X10628238Y-9625476D01*
X10609190Y-9625476D01*
X10590143Y-9615952D01*
X10580619Y-9606429D01*
X10571095Y-9587381D01*
X10561571Y-9549286D01*
X10561571Y-9501667D01*
X10571095Y-9463571D01*
X10580619Y-9444524D01*
X10590143Y-9435000D01*
X10609190Y-9425476D01*
X10752048Y-9444524D02*
X10761571Y-9435000D01*
X10780619Y-9425476D01*
X10828238Y-9425476D01*
X10847286Y-9435000D01*
X10856810Y-9444524D01*
X10866333Y-9463571D01*
X10866333Y-9482619D01*
X10856810Y-9511190D01*
X10742524Y-9625476D01*
X10866333Y-9625476D01*
X10933000Y-9425476D02*
X11066333Y-9425476D01*
X10980619Y-9625476D01*
X11228238Y-9425476D02*
X11190143Y-9425476D01*
X11171095Y-9435000D01*
X11161571Y-9444524D01*
X11142524Y-9473095D01*
X11133000Y-9511190D01*
X11133000Y-9587381D01*
X11142524Y-9606429D01*
X11152048Y-9615952D01*
X11171095Y-9625476D01*
X11209190Y-9625476D01*
X11228238Y-9615952D01*
X11237762Y-9606429D01*
X11247286Y-9587381D01*
X11247286Y-9539762D01*
X11237762Y-9520714D01*
X11228238Y-9511190D01*
X11209190Y-9501667D01*
X11171095Y-9501667D01*
X11152048Y-9511190D01*
X11142524Y-9520714D01*
X11133000Y-9539762D01*
X11323476Y-9425476D02*
X11323476Y-9463571D01*
X11399667Y-9425476D02*
X11399667Y-9463571D01*
X11694905Y-9701667D02*
X11685381Y-9692143D01*
X11666333Y-9663571D01*
X11656809Y-9644524D01*
X11647286Y-9615952D01*
X11637762Y-9568333D01*
X11637762Y-9530238D01*
X11647286Y-9482619D01*
X11656809Y-9454048D01*
X11666333Y-9435000D01*
X11685381Y-9406429D01*
X11694905Y-9396905D01*
X11875857Y-9625476D02*
X11761571Y-9625476D01*
X11818714Y-9625476D02*
X11818714Y-9425476D01*
X11799667Y-9454048D01*
X11780619Y-9473095D01*
X11761571Y-9482619D01*
X11952048Y-9444524D02*
X11961571Y-9435000D01*
X11980619Y-9425476D01*
X12028238Y-9425476D01*
X12047286Y-9435000D01*
X12056809Y-9444524D01*
X12066333Y-9463571D01*
X12066333Y-9482619D01*
X12056809Y-9511190D01*
X11942524Y-9625476D01*
X12066333Y-9625476D01*
X12304428Y-9625476D02*
X12304428Y-9425476D01*
X12390143Y-9625476D02*
X12390143Y-9520714D01*
X12380619Y-9501667D01*
X12361571Y-9492143D01*
X12333000Y-9492143D01*
X12313952Y-9501667D01*
X12304428Y-9511190D01*
X12513952Y-9625476D02*
X12494905Y-9615952D01*
X12485381Y-9606429D01*
X12475857Y-9587381D01*
X12475857Y-9530238D01*
X12485381Y-9511190D01*
X12494905Y-9501667D01*
X12513952Y-9492143D01*
X12542524Y-9492143D01*
X12561571Y-9501667D01*
X12571095Y-9511190D01*
X12580619Y-9530238D01*
X12580619Y-9587381D01*
X12571095Y-9606429D01*
X12561571Y-9615952D01*
X12542524Y-9625476D01*
X12513952Y-9625476D01*
X12694905Y-9625476D02*
X12675857Y-9615952D01*
X12666333Y-9596905D01*
X12666333Y-9425476D01*
X12847286Y-9615952D02*
X12828238Y-9625476D01*
X12790143Y-9625476D01*
X12771095Y-9615952D01*
X12761571Y-9596905D01*
X12761571Y-9520714D01*
X12771095Y-9501667D01*
X12790143Y-9492143D01*
X12828238Y-9492143D01*
X12847286Y-9501667D01*
X12856809Y-9520714D01*
X12856809Y-9539762D01*
X12761571Y-9558810D01*
X12933000Y-9615952D02*
X12952048Y-9625476D01*
X12990143Y-9625476D01*
X13009190Y-9615952D01*
X13018714Y-9596905D01*
X13018714Y-9587381D01*
X13009190Y-9568333D01*
X12990143Y-9558810D01*
X12961571Y-9558810D01*
X12942524Y-9549286D01*
X12933000Y-9530238D01*
X12933000Y-9520714D01*
X12942524Y-9501667D01*
X12961571Y-9492143D01*
X12990143Y-9492143D01*
X13009190Y-9501667D01*
X13085381Y-9701667D02*
X13094905Y-9692143D01*
X13113952Y-9663571D01*
X13123476Y-9644524D01*
X13133000Y-9615952D01*
X13142524Y-9568333D01*
X13142524Y-9530238D01*
X13133000Y-9482619D01*
X13123476Y-9454048D01*
X13113952Y-9435000D01*
X13094905Y-9406429D01*
X13085381Y-9396905D01*
D13*
X8123000Y-9799000D02*
G75*
G03*
X8123000Y-9799000I-37500J0D01*
G01*
D11*
X8418714Y-9689476D02*
X8437762Y-9689476D01*
X8456810Y-9699000D01*
X8466333Y-9708524D01*
X8475857Y-9727571D01*
X8485381Y-9765667D01*
X8485381Y-9813286D01*
X8475857Y-9851381D01*
X8466333Y-9870429D01*
X8456810Y-9879952D01*
X8437762Y-9889476D01*
X8418714Y-9889476D01*
X8399667Y-9879952D01*
X8390143Y-9870429D01*
X8380619Y-9851381D01*
X8371095Y-9813286D01*
X8371095Y-9765667D01*
X8380619Y-9727571D01*
X8390143Y-9708524D01*
X8399667Y-9699000D01*
X8418714Y-9689476D01*
X8571095Y-9870429D02*
X8580619Y-9879952D01*
X8571095Y-9889476D01*
X8561571Y-9879952D01*
X8571095Y-9870429D01*
X8571095Y-9889476D01*
X8647286Y-9689476D02*
X8780619Y-9689476D01*
X8694905Y-9889476D01*
X8952048Y-9689476D02*
X8856810Y-9689476D01*
X8847286Y-9784714D01*
X8856810Y-9775190D01*
X8875857Y-9765667D01*
X8923476Y-9765667D01*
X8942524Y-9775190D01*
X8952048Y-9784714D01*
X8961571Y-9803762D01*
X8961571Y-9851381D01*
X8952048Y-9870429D01*
X8942524Y-9879952D01*
X8923476Y-9889476D01*
X8875857Y-9889476D01*
X8856810Y-9879952D01*
X8847286Y-9870429D01*
X9085381Y-9689476D02*
X9104429Y-9689476D01*
X9123476Y-9699000D01*
X9133000Y-9708524D01*
X9142524Y-9727571D01*
X9152048Y-9765667D01*
X9152048Y-9813286D01*
X9142524Y-9851381D01*
X9133000Y-9870429D01*
X9123476Y-9879952D01*
X9104429Y-9889476D01*
X9085381Y-9889476D01*
X9066333Y-9879952D01*
X9056810Y-9870429D01*
X9047286Y-9851381D01*
X9037762Y-9813286D01*
X9037762Y-9765667D01*
X9047286Y-9727571D01*
X9056810Y-9708524D01*
X9066333Y-9699000D01*
X9085381Y-9689476D01*
X9237762Y-9889476D02*
X9237762Y-9756143D01*
X9237762Y-9775190D02*
X9247286Y-9765667D01*
X9266333Y-9756143D01*
X9294905Y-9756143D01*
X9313952Y-9765667D01*
X9323476Y-9784714D01*
X9323476Y-9889476D01*
X9323476Y-9784714D02*
X9333000Y-9765667D01*
X9352048Y-9756143D01*
X9380619Y-9756143D01*
X9399667Y-9765667D01*
X9409190Y-9784714D01*
X9409190Y-9889476D01*
X9504429Y-9889476D02*
X9504429Y-9756143D01*
X9504429Y-9775190D02*
X9513952Y-9765667D01*
X9533000Y-9756143D01*
X9561571Y-9756143D01*
X9580619Y-9765667D01*
X9590143Y-9784714D01*
X9590143Y-9889476D01*
X9590143Y-9784714D02*
X9599667Y-9765667D01*
X9618714Y-9756143D01*
X9647286Y-9756143D01*
X9666333Y-9765667D01*
X9675857Y-9784714D01*
X9675857Y-9889476D01*
X10066333Y-9679952D02*
X9894905Y-9937095D01*
X10323476Y-9689476D02*
X10342524Y-9689476D01*
X10361571Y-9699000D01*
X10371095Y-9708524D01*
X10380619Y-9727571D01*
X10390143Y-9765667D01*
X10390143Y-9813286D01*
X10380619Y-9851381D01*
X10371095Y-9870429D01*
X10361571Y-9879952D01*
X10342524Y-9889476D01*
X10323476Y-9889476D01*
X10304429Y-9879952D01*
X10294905Y-9870429D01*
X10285381Y-9851381D01*
X10275857Y-9813286D01*
X10275857Y-9765667D01*
X10285381Y-9727571D01*
X10294905Y-9708524D01*
X10304429Y-9699000D01*
X10323476Y-9689476D01*
X10475857Y-9870429D02*
X10485381Y-9879952D01*
X10475857Y-9889476D01*
X10466333Y-9879952D01*
X10475857Y-9870429D01*
X10475857Y-9889476D01*
X10609190Y-9689476D02*
X10628238Y-9689476D01*
X10647286Y-9699000D01*
X10656810Y-9708524D01*
X10666333Y-9727571D01*
X10675857Y-9765667D01*
X10675857Y-9813286D01*
X10666333Y-9851381D01*
X10656810Y-9870429D01*
X10647286Y-9879952D01*
X10628238Y-9889476D01*
X10609190Y-9889476D01*
X10590143Y-9879952D01*
X10580619Y-9870429D01*
X10571095Y-9851381D01*
X10561571Y-9813286D01*
X10561571Y-9765667D01*
X10571095Y-9727571D01*
X10580619Y-9708524D01*
X10590143Y-9699000D01*
X10609190Y-9689476D01*
X10752048Y-9708524D02*
X10761571Y-9699000D01*
X10780619Y-9689476D01*
X10828238Y-9689476D01*
X10847286Y-9699000D01*
X10856810Y-9708524D01*
X10866333Y-9727571D01*
X10866333Y-9746619D01*
X10856810Y-9775190D01*
X10742524Y-9889476D01*
X10866333Y-9889476D01*
X10961571Y-9889476D02*
X10999667Y-9889476D01*
X11018714Y-9879952D01*
X11028238Y-9870429D01*
X11047286Y-9841857D01*
X11056810Y-9803762D01*
X11056810Y-9727571D01*
X11047286Y-9708524D01*
X11037762Y-9699000D01*
X11018714Y-9689476D01*
X10980619Y-9689476D01*
X10961571Y-9699000D01*
X10952048Y-9708524D01*
X10942524Y-9727571D01*
X10942524Y-9775190D01*
X10952048Y-9794238D01*
X10961571Y-9803762D01*
X10980619Y-9813286D01*
X11018714Y-9813286D01*
X11037762Y-9803762D01*
X11047286Y-9794238D01*
X11056810Y-9775190D01*
X11237762Y-9689476D02*
X11142524Y-9689476D01*
X11133000Y-9784714D01*
X11142524Y-9775190D01*
X11161571Y-9765667D01*
X11209190Y-9765667D01*
X11228238Y-9775190D01*
X11237762Y-9784714D01*
X11247286Y-9803762D01*
X11247286Y-9851381D01*
X11237762Y-9870429D01*
X11228238Y-9879952D01*
X11209190Y-9889476D01*
X11161571Y-9889476D01*
X11142524Y-9879952D01*
X11133000Y-9870429D01*
X11323476Y-9689476D02*
X11323476Y-9727571D01*
X11399667Y-9689476D02*
X11399667Y-9727571D01*
X11694905Y-9965667D02*
X11685381Y-9956143D01*
X11666333Y-9927571D01*
X11656809Y-9908524D01*
X11647286Y-9879952D01*
X11637762Y-9832333D01*
X11637762Y-9794238D01*
X11647286Y-9746619D01*
X11656809Y-9718048D01*
X11666333Y-9699000D01*
X11685381Y-9670429D01*
X11694905Y-9660905D01*
X11780619Y-9889476D02*
X11818714Y-9889476D01*
X11837762Y-9879952D01*
X11847286Y-9870429D01*
X11866333Y-9841857D01*
X11875857Y-9803762D01*
X11875857Y-9727571D01*
X11866333Y-9708524D01*
X11856809Y-9699000D01*
X11837762Y-9689476D01*
X11799667Y-9689476D01*
X11780619Y-9699000D01*
X11771095Y-9708524D01*
X11761571Y-9727571D01*
X11761571Y-9775190D01*
X11771095Y-9794238D01*
X11780619Y-9803762D01*
X11799667Y-9813286D01*
X11837762Y-9813286D01*
X11856809Y-9803762D01*
X11866333Y-9794238D01*
X11875857Y-9775190D01*
X12113952Y-9889476D02*
X12113952Y-9689476D01*
X12199667Y-9889476D02*
X12199667Y-9784714D01*
X12190143Y-9765667D01*
X12171095Y-9756143D01*
X12142524Y-9756143D01*
X12123476Y-9765667D01*
X12113952Y-9775190D01*
X12323476Y-9889476D02*
X12304428Y-9879952D01*
X12294905Y-9870429D01*
X12285381Y-9851381D01*
X12285381Y-9794238D01*
X12294905Y-9775190D01*
X12304428Y-9765667D01*
X12323476Y-9756143D01*
X12352048Y-9756143D01*
X12371095Y-9765667D01*
X12380619Y-9775190D01*
X12390143Y-9794238D01*
X12390143Y-9851381D01*
X12380619Y-9870429D01*
X12371095Y-9879952D01*
X12352048Y-9889476D01*
X12323476Y-9889476D01*
X12504428Y-9889476D02*
X12485381Y-9879952D01*
X12475857Y-9860905D01*
X12475857Y-9689476D01*
X12656809Y-9879952D02*
X12637762Y-9889476D01*
X12599667Y-9889476D01*
X12580619Y-9879952D01*
X12571095Y-9860905D01*
X12571095Y-9784714D01*
X12580619Y-9765667D01*
X12599667Y-9756143D01*
X12637762Y-9756143D01*
X12656809Y-9765667D01*
X12666333Y-9784714D01*
X12666333Y-9803762D01*
X12571095Y-9822810D01*
X12742524Y-9879952D02*
X12761571Y-9889476D01*
X12799667Y-9889476D01*
X12818714Y-9879952D01*
X12828238Y-9860905D01*
X12828238Y-9851381D01*
X12818714Y-9832333D01*
X12799667Y-9822810D01*
X12771095Y-9822810D01*
X12752048Y-9813286D01*
X12742524Y-9794238D01*
X12742524Y-9784714D01*
X12752048Y-9765667D01*
X12771095Y-9756143D01*
X12799667Y-9756143D01*
X12818714Y-9765667D01*
X12894905Y-9965667D02*
X12904428Y-9956143D01*
X12923476Y-9927571D01*
X12933000Y-9908524D01*
X12942524Y-9879952D01*
X12952048Y-9832333D01*
X12952048Y-9794238D01*
X12942524Y-9746619D01*
X12933000Y-9718048D01*
X12923476Y-9699000D01*
X12904428Y-9670429D01*
X12894905Y-9660905D01*
D14*
X8083000Y-10023000D02*
X8083000Y-10103000D01*
X8043000Y-10063000D02*
X8123000Y-10063000D01*
D11*
X8418714Y-9953476D02*
X8437762Y-9953476D01*
X8456810Y-9963000D01*
X8466333Y-9972524D01*
X8475857Y-9991571D01*
X8485381Y-10029667D01*
X8485381Y-10077286D01*
X8475857Y-10115381D01*
X8466333Y-10134429D01*
X8456810Y-10143952D01*
X8437762Y-10153476D01*
X8418714Y-10153476D01*
X8399667Y-10143952D01*
X8390143Y-10134429D01*
X8380619Y-10115381D01*
X8371095Y-10077286D01*
X8371095Y-10029667D01*
X8380619Y-9991571D01*
X8390143Y-9972524D01*
X8399667Y-9963000D01*
X8418714Y-9953476D01*
X8571095Y-10134429D02*
X8580619Y-10143952D01*
X8571095Y-10153476D01*
X8561571Y-10143952D01*
X8571095Y-10134429D01*
X8571095Y-10153476D01*
X8694905Y-10039190D02*
X8675857Y-10029667D01*
X8666333Y-10020143D01*
X8656810Y-10001095D01*
X8656810Y-9991571D01*
X8666333Y-9972524D01*
X8675857Y-9963000D01*
X8694905Y-9953476D01*
X8733000Y-9953476D01*
X8752048Y-9963000D01*
X8761571Y-9972524D01*
X8771095Y-9991571D01*
X8771095Y-10001095D01*
X8761571Y-10020143D01*
X8752048Y-10029667D01*
X8733000Y-10039190D01*
X8694905Y-10039190D01*
X8675857Y-10048714D01*
X8666333Y-10058238D01*
X8656810Y-10077286D01*
X8656810Y-10115381D01*
X8666333Y-10134429D01*
X8675857Y-10143952D01*
X8694905Y-10153476D01*
X8733000Y-10153476D01*
X8752048Y-10143952D01*
X8761571Y-10134429D01*
X8771095Y-10115381D01*
X8771095Y-10077286D01*
X8761571Y-10058238D01*
X8752048Y-10048714D01*
X8733000Y-10039190D01*
X8894905Y-9953476D02*
X8913952Y-9953476D01*
X8933000Y-9963000D01*
X8942524Y-9972524D01*
X8952048Y-9991571D01*
X8961571Y-10029667D01*
X8961571Y-10077286D01*
X8952048Y-10115381D01*
X8942524Y-10134429D01*
X8933000Y-10143952D01*
X8913952Y-10153476D01*
X8894905Y-10153476D01*
X8875857Y-10143952D01*
X8866333Y-10134429D01*
X8856810Y-10115381D01*
X8847286Y-10077286D01*
X8847286Y-10029667D01*
X8856810Y-9991571D01*
X8866333Y-9972524D01*
X8875857Y-9963000D01*
X8894905Y-9953476D01*
X9085381Y-9953476D02*
X9104429Y-9953476D01*
X9123476Y-9963000D01*
X9133000Y-9972524D01*
X9142524Y-9991571D01*
X9152048Y-10029667D01*
X9152048Y-10077286D01*
X9142524Y-10115381D01*
X9133000Y-10134429D01*
X9123476Y-10143952D01*
X9104429Y-10153476D01*
X9085381Y-10153476D01*
X9066333Y-10143952D01*
X9056810Y-10134429D01*
X9047286Y-10115381D01*
X9037762Y-10077286D01*
X9037762Y-10029667D01*
X9047286Y-9991571D01*
X9056810Y-9972524D01*
X9066333Y-9963000D01*
X9085381Y-9953476D01*
X9237762Y-10153476D02*
X9237762Y-10020143D01*
X9237762Y-10039190D02*
X9247286Y-10029667D01*
X9266333Y-10020143D01*
X9294905Y-10020143D01*
X9313952Y-10029667D01*
X9323476Y-10048714D01*
X9323476Y-10153476D01*
X9323476Y-10048714D02*
X9333000Y-10029667D01*
X9352048Y-10020143D01*
X9380619Y-10020143D01*
X9399667Y-10029667D01*
X9409190Y-10048714D01*
X9409190Y-10153476D01*
X9504429Y-10153476D02*
X9504429Y-10020143D01*
X9504429Y-10039190D02*
X9513952Y-10029667D01*
X9533000Y-10020143D01*
X9561571Y-10020143D01*
X9580619Y-10029667D01*
X9590143Y-10048714D01*
X9590143Y-10153476D01*
X9590143Y-10048714D02*
X9599667Y-10029667D01*
X9618714Y-10020143D01*
X9647286Y-10020143D01*
X9666333Y-10029667D01*
X9675857Y-10048714D01*
X9675857Y-10153476D01*
X10066333Y-9943952D02*
X9894905Y-10201095D01*
X10323476Y-9953476D02*
X10342524Y-9953476D01*
X10361571Y-9963000D01*
X10371095Y-9972524D01*
X10380619Y-9991571D01*
X10390143Y-10029667D01*
X10390143Y-10077286D01*
X10380619Y-10115381D01*
X10371095Y-10134429D01*
X10361571Y-10143952D01*
X10342524Y-10153476D01*
X10323476Y-10153476D01*
X10304429Y-10143952D01*
X10294905Y-10134429D01*
X10285381Y-10115381D01*
X10275857Y-10077286D01*
X10275857Y-10029667D01*
X10285381Y-9991571D01*
X10294905Y-9972524D01*
X10304429Y-9963000D01*
X10323476Y-9953476D01*
X10475857Y-10134429D02*
X10485381Y-10143952D01*
X10475857Y-10153476D01*
X10466333Y-10143952D01*
X10475857Y-10134429D01*
X10475857Y-10153476D01*
X10609190Y-9953476D02*
X10628238Y-9953476D01*
X10647286Y-9963000D01*
X10656810Y-9972524D01*
X10666333Y-9991571D01*
X10675857Y-10029667D01*
X10675857Y-10077286D01*
X10666333Y-10115381D01*
X10656810Y-10134429D01*
X10647286Y-10143952D01*
X10628238Y-10153476D01*
X10609190Y-10153476D01*
X10590143Y-10143952D01*
X10580619Y-10134429D01*
X10571095Y-10115381D01*
X10561571Y-10077286D01*
X10561571Y-10029667D01*
X10571095Y-9991571D01*
X10580619Y-9972524D01*
X10590143Y-9963000D01*
X10609190Y-9953476D01*
X10742524Y-9953476D02*
X10866333Y-9953476D01*
X10799667Y-10029667D01*
X10828238Y-10029667D01*
X10847286Y-10039190D01*
X10856810Y-10048714D01*
X10866333Y-10067762D01*
X10866333Y-10115381D01*
X10856810Y-10134429D01*
X10847286Y-10143952D01*
X10828238Y-10153476D01*
X10771095Y-10153476D01*
X10752048Y-10143952D01*
X10742524Y-10134429D01*
X11056810Y-10153476D02*
X10942524Y-10153476D01*
X10999667Y-10153476D02*
X10999667Y-9953476D01*
X10980619Y-9982048D01*
X10961571Y-10001095D01*
X10942524Y-10010619D01*
X11237762Y-9953476D02*
X11142524Y-9953476D01*
X11133000Y-10048714D01*
X11142524Y-10039190D01*
X11161571Y-10029667D01*
X11209190Y-10029667D01*
X11228238Y-10039190D01*
X11237762Y-10048714D01*
X11247286Y-10067762D01*
X11247286Y-10115381D01*
X11237762Y-10134429D01*
X11228238Y-10143952D01*
X11209190Y-10153476D01*
X11161571Y-10153476D01*
X11142524Y-10143952D01*
X11133000Y-10134429D01*
X11323476Y-9953476D02*
X11323476Y-9991571D01*
X11399667Y-9953476D02*
X11399667Y-9991571D01*
X11694905Y-10229667D02*
X11685381Y-10220143D01*
X11666333Y-10191571D01*
X11656809Y-10172524D01*
X11647286Y-10143952D01*
X11637762Y-10096333D01*
X11637762Y-10058238D01*
X11647286Y-10010619D01*
X11656809Y-9982048D01*
X11666333Y-9963000D01*
X11685381Y-9934429D01*
X11694905Y-9924905D01*
X11875857Y-10153476D02*
X11761571Y-10153476D01*
X11818714Y-10153476D02*
X11818714Y-9953476D01*
X11799667Y-9982048D01*
X11780619Y-10001095D01*
X11761571Y-10010619D01*
X12047286Y-10020143D02*
X12047286Y-10153476D01*
X11999667Y-9943952D02*
X11952048Y-10086810D01*
X12075857Y-10086810D01*
X12237762Y-10020143D02*
X12237762Y-10153476D01*
X12190143Y-9943952D02*
X12142524Y-10086810D01*
X12266333Y-10086810D01*
X12494905Y-10153476D02*
X12494905Y-9953476D01*
X12580619Y-10153476D02*
X12580619Y-10048714D01*
X12571095Y-10029667D01*
X12552048Y-10020143D01*
X12523476Y-10020143D01*
X12504428Y-10029667D01*
X12494905Y-10039190D01*
X12704428Y-10153476D02*
X12685381Y-10143952D01*
X12675857Y-10134429D01*
X12666333Y-10115381D01*
X12666333Y-10058238D01*
X12675857Y-10039190D01*
X12685381Y-10029667D01*
X12704428Y-10020143D01*
X12733000Y-10020143D01*
X12752048Y-10029667D01*
X12761571Y-10039190D01*
X12771095Y-10058238D01*
X12771095Y-10115381D01*
X12761571Y-10134429D01*
X12752048Y-10143952D01*
X12733000Y-10153476D01*
X12704428Y-10153476D01*
X12885381Y-10153476D02*
X12866333Y-10143952D01*
X12856809Y-10124905D01*
X12856809Y-9953476D01*
X13037762Y-10143952D02*
X13018714Y-10153476D01*
X12980619Y-10153476D01*
X12961571Y-10143952D01*
X12952048Y-10124905D01*
X12952048Y-10048714D01*
X12961571Y-10029667D01*
X12980619Y-10020143D01*
X13018714Y-10020143D01*
X13037762Y-10029667D01*
X13047286Y-10048714D01*
X13047286Y-10067762D01*
X12952048Y-10086810D01*
X13123476Y-10143952D02*
X13142524Y-10153476D01*
X13180619Y-10153476D01*
X13199667Y-10143952D01*
X13209190Y-10124905D01*
X13209190Y-10115381D01*
X13199667Y-10096333D01*
X13180619Y-10086810D01*
X13152048Y-10086810D01*
X13133000Y-10077286D01*
X13123476Y-10058238D01*
X13123476Y-10048714D01*
X13133000Y-10029667D01*
X13152048Y-10020143D01*
X13180619Y-10020143D01*
X13199667Y-10029667D01*
X13275857Y-10229667D02*
X13285381Y-10220143D01*
X13304428Y-10191571D01*
X13313952Y-10172524D01*
X13323476Y-10143952D01*
X13333000Y-10096333D01*
X13333000Y-10058238D01*
X13323476Y-10010619D01*
X13313952Y-9982048D01*
X13304428Y-9963000D01*
X13285381Y-9934429D01*
X13275857Y-9924905D01*
D15*
X8108356Y-10362356D02*
X8108356Y-10291644D01*
X8037644Y-10291644D01*
X8037644Y-10362356D01*
X8108356Y-10362356D01*
D11*
X8485381Y-10417476D02*
X8371095Y-10417476D01*
X8428238Y-10417476D02*
X8428238Y-10217476D01*
X8409190Y-10246048D01*
X8390143Y-10265095D01*
X8371095Y-10274619D01*
X8571095Y-10398429D02*
X8580619Y-10407952D01*
X8571095Y-10417476D01*
X8561571Y-10407952D01*
X8571095Y-10398429D01*
X8571095Y-10417476D01*
X8704429Y-10217476D02*
X8723476Y-10217476D01*
X8742524Y-10227000D01*
X8752048Y-10236524D01*
X8761571Y-10255571D01*
X8771095Y-10293667D01*
X8771095Y-10341286D01*
X8761571Y-10379381D01*
X8752048Y-10398429D01*
X8742524Y-10407952D01*
X8723476Y-10417476D01*
X8704429Y-10417476D01*
X8685381Y-10407952D01*
X8675857Y-10398429D01*
X8666333Y-10379381D01*
X8656810Y-10341286D01*
X8656810Y-10293667D01*
X8666333Y-10255571D01*
X8675857Y-10236524D01*
X8685381Y-10227000D01*
X8704429Y-10217476D01*
X8894905Y-10217476D02*
X8913952Y-10217476D01*
X8933000Y-10227000D01*
X8942524Y-10236524D01*
X8952048Y-10255571D01*
X8961571Y-10293667D01*
X8961571Y-10341286D01*
X8952048Y-10379381D01*
X8942524Y-10398429D01*
X8933000Y-10407952D01*
X8913952Y-10417476D01*
X8894905Y-10417476D01*
X8875857Y-10407952D01*
X8866333Y-10398429D01*
X8856810Y-10379381D01*
X8847286Y-10341286D01*
X8847286Y-10293667D01*
X8856810Y-10255571D01*
X8866333Y-10236524D01*
X8875857Y-10227000D01*
X8894905Y-10217476D01*
X9085381Y-10217476D02*
X9104429Y-10217476D01*
X9123476Y-10227000D01*
X9133000Y-10236524D01*
X9142524Y-10255571D01*
X9152048Y-10293667D01*
X9152048Y-10341286D01*
X9142524Y-10379381D01*
X9133000Y-10398429D01*
X9123476Y-10407952D01*
X9104429Y-10417476D01*
X9085381Y-10417476D01*
X9066333Y-10407952D01*
X9056810Y-10398429D01*
X9047286Y-10379381D01*
X9037762Y-10341286D01*
X9037762Y-10293667D01*
X9047286Y-10255571D01*
X9056810Y-10236524D01*
X9066333Y-10227000D01*
X9085381Y-10217476D01*
X9237762Y-10417476D02*
X9237762Y-10284143D01*
X9237762Y-10303190D02*
X9247286Y-10293667D01*
X9266333Y-10284143D01*
X9294905Y-10284143D01*
X9313952Y-10293667D01*
X9323476Y-10312714D01*
X9323476Y-10417476D01*
X9323476Y-10312714D02*
X9333000Y-10293667D01*
X9352048Y-10284143D01*
X9380619Y-10284143D01*
X9399667Y-10293667D01*
X9409190Y-10312714D01*
X9409190Y-10417476D01*
X9504429Y-10417476D02*
X9504429Y-10284143D01*
X9504429Y-10303190D02*
X9513952Y-10293667D01*
X9533000Y-10284143D01*
X9561571Y-10284143D01*
X9580619Y-10293667D01*
X9590143Y-10312714D01*
X9590143Y-10417476D01*
X9590143Y-10312714D02*
X9599667Y-10293667D01*
X9618714Y-10284143D01*
X9647286Y-10284143D01*
X9666333Y-10293667D01*
X9675857Y-10312714D01*
X9675857Y-10417476D01*
X10066333Y-10207952D02*
X9894905Y-10465095D01*
X10323476Y-10217476D02*
X10342524Y-10217476D01*
X10361571Y-10227000D01*
X10371095Y-10236524D01*
X10380619Y-10255571D01*
X10390143Y-10293667D01*
X10390143Y-10341286D01*
X10380619Y-10379381D01*
X10371095Y-10398429D01*
X10361571Y-10407952D01*
X10342524Y-10417476D01*
X10323476Y-10417476D01*
X10304429Y-10407952D01*
X10294905Y-10398429D01*
X10285381Y-10379381D01*
X10275857Y-10341286D01*
X10275857Y-10293667D01*
X10285381Y-10255571D01*
X10294905Y-10236524D01*
X10304429Y-10227000D01*
X10323476Y-10217476D01*
X10475857Y-10398429D02*
X10485381Y-10407952D01*
X10475857Y-10417476D01*
X10466333Y-10407952D01*
X10475857Y-10398429D01*
X10475857Y-10417476D01*
X10609190Y-10217476D02*
X10628238Y-10217476D01*
X10647286Y-10227000D01*
X10656810Y-10236524D01*
X10666333Y-10255571D01*
X10675857Y-10293667D01*
X10675857Y-10341286D01*
X10666333Y-10379381D01*
X10656810Y-10398429D01*
X10647286Y-10407952D01*
X10628238Y-10417476D01*
X10609190Y-10417476D01*
X10590143Y-10407952D01*
X10580619Y-10398429D01*
X10571095Y-10379381D01*
X10561571Y-10341286D01*
X10561571Y-10293667D01*
X10571095Y-10255571D01*
X10580619Y-10236524D01*
X10590143Y-10227000D01*
X10609190Y-10217476D01*
X10742524Y-10217476D02*
X10866333Y-10217476D01*
X10799667Y-10293667D01*
X10828238Y-10293667D01*
X10847286Y-10303190D01*
X10856810Y-10312714D01*
X10866333Y-10331762D01*
X10866333Y-10379381D01*
X10856810Y-10398429D01*
X10847286Y-10407952D01*
X10828238Y-10417476D01*
X10771095Y-10417476D01*
X10752048Y-10407952D01*
X10742524Y-10398429D01*
X10961571Y-10417476D02*
X10999667Y-10417476D01*
X11018714Y-10407952D01*
X11028238Y-10398429D01*
X11047286Y-10369857D01*
X11056810Y-10331762D01*
X11056810Y-10255571D01*
X11047286Y-10236524D01*
X11037762Y-10227000D01*
X11018714Y-10217476D01*
X10980619Y-10217476D01*
X10961571Y-10227000D01*
X10952048Y-10236524D01*
X10942524Y-10255571D01*
X10942524Y-10303190D01*
X10952048Y-10322238D01*
X10961571Y-10331762D01*
X10980619Y-10341286D01*
X11018714Y-10341286D01*
X11037762Y-10331762D01*
X11047286Y-10322238D01*
X11056810Y-10303190D01*
X11228238Y-10284143D02*
X11228238Y-10417476D01*
X11180619Y-10207952D02*
X11133000Y-10350810D01*
X11256809Y-10350810D01*
X11323476Y-10217476D02*
X11323476Y-10255571D01*
X11399667Y-10217476D02*
X11399667Y-10255571D01*
X11694905Y-10493667D02*
X11685381Y-10484143D01*
X11666333Y-10455571D01*
X11656809Y-10436524D01*
X11647286Y-10407952D01*
X11637762Y-10360333D01*
X11637762Y-10322238D01*
X11647286Y-10274619D01*
X11656809Y-10246048D01*
X11666333Y-10227000D01*
X11685381Y-10198429D01*
X11694905Y-10188905D01*
X11856809Y-10217476D02*
X11818714Y-10217476D01*
X11799667Y-10227000D01*
X11790143Y-10236524D01*
X11771095Y-10265095D01*
X11761571Y-10303190D01*
X11761571Y-10379381D01*
X11771095Y-10398429D01*
X11780619Y-10407952D01*
X11799667Y-10417476D01*
X11837762Y-10417476D01*
X11856809Y-10407952D01*
X11866333Y-10398429D01*
X11875857Y-10379381D01*
X11875857Y-10331762D01*
X11866333Y-10312714D01*
X11856809Y-10303190D01*
X11837762Y-10293667D01*
X11799667Y-10293667D01*
X11780619Y-10303190D01*
X11771095Y-10312714D01*
X11761571Y-10331762D01*
X11942524Y-10217476D02*
X12075857Y-10217476D01*
X11990143Y-10417476D01*
X12304428Y-10417476D02*
X12304428Y-10217476D01*
X12390143Y-10417476D02*
X12390143Y-10312714D01*
X12380619Y-10293667D01*
X12361571Y-10284143D01*
X12333000Y-10284143D01*
X12313952Y-10293667D01*
X12304428Y-10303190D01*
X12513952Y-10417476D02*
X12494905Y-10407952D01*
X12485381Y-10398429D01*
X12475857Y-10379381D01*
X12475857Y-10322238D01*
X12485381Y-10303190D01*
X12494905Y-10293667D01*
X12513952Y-10284143D01*
X12542524Y-10284143D01*
X12561571Y-10293667D01*
X12571095Y-10303190D01*
X12580619Y-10322238D01*
X12580619Y-10379381D01*
X12571095Y-10398429D01*
X12561571Y-10407952D01*
X12542524Y-10417476D01*
X12513952Y-10417476D01*
X12694905Y-10417476D02*
X12675857Y-10407952D01*
X12666333Y-10388905D01*
X12666333Y-10217476D01*
X12847286Y-10407952D02*
X12828238Y-10417476D01*
X12790143Y-10417476D01*
X12771095Y-10407952D01*
X12761571Y-10388905D01*
X12761571Y-10312714D01*
X12771095Y-10293667D01*
X12790143Y-10284143D01*
X12828238Y-10284143D01*
X12847286Y-10293667D01*
X12856809Y-10312714D01*
X12856809Y-10331762D01*
X12761571Y-10350810D01*
X12933000Y-10407952D02*
X12952048Y-10417476D01*
X12990143Y-10417476D01*
X13009190Y-10407952D01*
X13018714Y-10388905D01*
X13018714Y-10379381D01*
X13009190Y-10360333D01*
X12990143Y-10350810D01*
X12961571Y-10350810D01*
X12942524Y-10341286D01*
X12933000Y-10322238D01*
X12933000Y-10312714D01*
X12942524Y-10293667D01*
X12961571Y-10284143D01*
X12990143Y-10284143D01*
X13009190Y-10293667D01*
X13085381Y-10493667D02*
X13094905Y-10484143D01*
X13113952Y-10455571D01*
X13123476Y-10436524D01*
X13133000Y-10407952D01*
X13142524Y-10360333D01*
X13142524Y-10322238D01*
X13133000Y-10274619D01*
X13123476Y-10246048D01*
X13113952Y-10227000D01*
X13094905Y-10198429D01*
X13085381Y-10188905D01*
M02*
