M48
; DRILL file {KiCad (6.0.6)} date Wed Jan  4 14:37:06 2023
; FORMAT={-:-/ absolute / metric / decimal}
; #@! TF.CreationDate,2023-01-04T14:37:06+01:00
; #@! TF.GenerationSoftware,Kicad,Pcbnew,(6.0.6)
; #@! TF.FileFunction,Plated,1,2,PTH
FMAT,2
METRIC
; #@! TA.AperFunction,Plated,PTH,ComponentDrill
T1C0.700
; #@! TA.AperFunction,Plated,PTH,ComponentDrill
T2C0.750
; #@! TA.AperFunction,Plated,PTH,ComponentDrill
T3C0.800
; #@! TA.AperFunction,Plated,PTH,ComponentDrill
T4C1.000
%
G90
G05
T1
X106.807Y-42.291
X111.887Y-42.291
X124.587Y-70.231
X129.54Y-46.863
X129.54Y-51.943
X129.667Y-70.231
X153.543Y-72.517
X158.623Y-72.517
X176.657Y-53.213
X181.737Y-53.213
X188.087Y-26.797
X193.167Y-26.797
T2
X96.647Y-42.185
X97.917Y-42.185
X99.187Y-42.185
X123.19Y-41.635
X124.46Y-41.635
X125.73Y-41.635
X181.61Y-63.775
X182.88Y-63.775
X184.15Y-63.775
T3
X90.297Y-47.117
X90.297Y-52.07
X94.107Y-37.211
X97.917Y-47.117
X97.917Y-52.07
X99.695Y-72.39
X100.33Y-55.968
X100.33Y-58.468
X100.33Y-64.77
X100.33Y-67.27
X101.727Y-37.211
X102.743Y-42.291
X102.743Y-49.911
X106.563Y-46.365
X106.563Y-48.905
X106.563Y-51.445
X106.563Y-53.985
X107.061Y-75.565
X107.315Y-72.39
X111.125Y-65.405
X111.125Y-73.025
X114.173Y-70.739
X114.183Y-46.365
X114.183Y-48.905
X114.183Y-51.445
X114.183Y-53.985
X114.681Y-75.565
X118.745Y-74.295
X118.745Y-81.915
X119.38Y-46.99
X119.38Y-50.8
X119.38Y-54.61
X121.295Y-59.065
X121.295Y-61.605
X121.295Y-64.145
X121.295Y-66.685
X121.793Y-70.739
X121.92Y-74.295
X121.92Y-81.915
X127.0Y-46.99
X127.0Y-50.8
X127.0Y-54.61
X128.915Y-59.065
X128.915Y-61.605
X128.915Y-64.145
X128.915Y-66.685
X132.715Y-46.355
X132.715Y-53.975
X136.017Y-46.355
X136.017Y-53.975
X139.065Y-36.195
X139.065Y-39.37
X139.065Y-43.81
X139.065Y-46.35
X139.065Y-48.89
X139.065Y-51.43
X139.065Y-53.97
X139.065Y-56.51
X139.065Y-59.05
X145.367Y-65.405
X146.685Y-36.195
X146.685Y-39.37
X146.685Y-43.81
X146.685Y-46.35
X146.685Y-48.89
X146.685Y-51.43
X146.685Y-53.97
X146.685Y-56.51
X146.685Y-59.05
X147.867Y-65.405
X150.495Y-41.275
X150.495Y-48.895
X150.495Y-51.435
X150.495Y-59.055
X151.765Y-64.135
X153.67Y-53.34
X153.67Y-60.96
X155.829Y-83.439
X156.845Y-53.34
X156.845Y-60.96
X159.385Y-64.135
X160.401Y-53.213
X160.401Y-60.833
X161.671Y-39.497
X161.671Y-47.117
X163.83Y-64.135
X163.83Y-70.485
X164.465Y-52.705
X164.465Y-55.88
X164.465Y-58.42
X164.973Y-36.449
X164.973Y-44.069
X165.989Y-83.439
X167.767Y-30.099
X167.767Y-33.401
X167.767Y-36.449
X167.767Y-39.497
X167.767Y-75.057
X171.069Y-42.291
X171.069Y-49.911
X171.45Y-64.135
X171.45Y-70.485
X172.085Y-52.705
X172.085Y-55.88
X172.085Y-58.42
X175.26Y-58.801
X175.265Y-42.555
X175.265Y-50.175
X175.387Y-30.099
X175.387Y-33.401
X175.387Y-36.449
X175.387Y-39.497
X175.387Y-62.357
X175.387Y-69.977
X175.387Y-75.057
X177.805Y-42.555
X177.805Y-50.175
X178.435Y-66.675
X178.435Y-74.295
X180.345Y-42.555
X180.345Y-50.175
X182.753Y-35.433
X182.88Y-58.801
X182.885Y-42.555
X182.885Y-50.175
X184.15Y-67.945
X184.15Y-75.565
X184.277Y-53.467
X185.425Y-42.555
X185.425Y-50.175
X187.965Y-42.555
X187.965Y-50.175
X190.373Y-35.433
X190.373Y-38.735
X190.505Y-42.555
X190.505Y-50.175
X191.135Y-57.277
X191.135Y-64.897
X191.897Y-53.467
X195.961Y-45.339
X195.961Y-60.833
X197.993Y-38.735
X203.581Y-45.339
X203.581Y-60.833
T4
X90.043Y-32.131
X90.043Y-37.131
X90.292Y-59.822
X90.292Y-62.362
X90.292Y-64.902
X90.292Y-67.442
X90.292Y-69.982
X92.832Y-59.822
X92.832Y-62.362
X92.832Y-64.902
X92.832Y-67.442
X92.832Y-69.982
X95.86Y-78.085
X95.86Y-80.625
X97.942Y-29.357
X97.942Y-31.897
X100.99Y-75.58
X100.99Y-78.12
X100.99Y-80.66
X106.538Y-81.686
X106.553Y-30.139
X106.553Y-35.139
X106.68Y-62.397
X106.68Y-67.397
X109.078Y-81.686
X111.618Y-81.686
X115.697Y-60.111
X115.697Y-65.111
X126.619Y-76.342
X126.619Y-78.882
X126.619Y-81.422
X132.715Y-78.105
X135.255Y-78.105
X137.795Y-78.105
X140.335Y-73.025
X140.335Y-78.105
X142.875Y-78.105
X145.335Y-73.025
X145.415Y-78.105
X153.035Y-31.155
X153.035Y-36.155
X153.543Y-75.311
X153.543Y-77.851
X153.543Y-80.391
X153.71Y-68.58
X158.623Y-75.311
X158.623Y-77.851
X158.623Y-80.391
X158.71Y-68.58
X175.362Y-78.847
X175.362Y-81.387
X180.95Y-78.847
X180.95Y-81.387
X183.236Y-29.317
X183.236Y-31.857
X188.341Y-78.867
X188.341Y-81.407
X190.5Y-31.75
X193.04Y-31.75
X194.158Y-78.847
X194.158Y-81.387
X195.58Y-31.75
X202.336Y-28.849
X202.336Y-31.389
X203.581Y-49.515
X203.581Y-52.055
X203.581Y-54.595
T0
M30
